<?xml version="1.0" encoding="UTF-8" standalone="no"?>
<!DOCTYPE svg PUBLIC "-//W3C//DTD SVG 1.1//EN" "http://www.w3.org/Graphics/SVG/1.1/DTD/svg11.dtd">
<!-- Generiert durch Microsoft Visio, SVG Export keystore.svg Page-1 -->
<svg xmlns="http://www.w3.org/2000/svg" xmlns:xlink="http://www.w3.org/1999/xlink" xmlns:ev="http://www.w3.org/2001/xml-events"
		xmlns:v="http://schemas.microsoft.com/visio/2003/SVGExtensions/" width="11.6929in" height="16.0354in"
		viewBox="0 0 841.89 1154.55" xml:space="preserve" color-interpolation-filters="sRGB" class="st25">
	<v:documentProperties v:langID="1031" v:metric="true" v:viewMarkup="false">
		<v:userDefs>
			<v:ud v:nameU="msvSubprocessMaster" v:prompt="" v:val="VT4(Box)"/>
			<v:ud v:nameU="msvNoAutoConnect" v:val="VT0(1):26"/>
		</v:userDefs>
	</v:documentProperties>

	<style type="text/css">
	<![CDATA[
		.st1 {marker-end:url(#mrkr4-6);stroke:#5692c9;stroke-linecap:round;stroke-linejoin:round;stroke-width:0.5}
		.st2 {fill:#5692c9;fill-opacity:1;stroke:#5692c9;stroke-opacity:1;stroke-width:0.16556291390728}
		.st3 {fill:#c00000;stroke:#ffffff;stroke-linecap:round;stroke-linejoin:round;stroke-width:0.5}
		.st4 {stroke:#ffffff;stroke-linecap:round;stroke-linejoin:round;stroke-width:0.5}
		.st5 {stroke:#5692c9;stroke-linecap:round;stroke-linejoin:round;stroke-width:0.5}
		.st6 {marker-start:url(#mrkr4-62);stroke:#5692c9;stroke-linecap:round;stroke-linejoin:round;stroke-width:0.5}
		.st7 {fill:none;stroke:#fd9759;stroke-linecap:round;stroke-linejoin:round;stroke-width:2}
		.st8 {fill:#ffc000;stroke:#ffffff;stroke-linecap:round;stroke-linejoin:round;stroke-width:0.5}
		.st9 {fill:#92d050;stroke:#ffffff;stroke-linecap:round;stroke-linejoin:round;stroke-width:0.5}
		.st10 {fill:#0070c0}
		.st11 {fill:#0070c0;stroke:#ffffff;stroke-linecap:round;stroke-linejoin:round;stroke-width:0.5}
		.st12 {fill:#ff0000;font-family:Calibri;font-size:0.833336em}
		.st13 {fill:#92d050}
		.st14 {fill:#ffc000}
		.st15 {fill:#ffc000;stroke:none;stroke-linecap:butt;stroke-width:0.75}
		.st16 {fill:#92d050;stroke:none;stroke-linecap:butt;stroke-width:0.75}
		.st17 {fill:#ffff00;stroke:#ffffff;stroke-linecap:round;stroke-linejoin:round;stroke-width:0.5}
		.st18 {fill:#ffff00}
		.st19 {fill:#c00000;stroke:none;stroke-linecap:butt;stroke-width:0.75}
		.st20 {fill:#5b9bd5;stroke:#ffffff;stroke-linecap:round;stroke-linejoin:round;stroke-width:0.5}
		.st21 {fill:#ffffff;font-family:Calibri;font-size:1.5em}
		.st22 {fill:#c00000}
		.st23 {fill:#ffffff;font-family:Calibri;font-size:1.16666em}
		.st24 {font-size:1em}
		.st25 {fill:none;fill-rule:evenodd;font-size:12px;overflow:visible;stroke-linecap:square;stroke-miterlimit:3}
	]]>
	</style>

	<defs id="Markers">
		<g id="lend4">
			<path d="M 2 1 L 0 0 L 2 -1 L 2 1 " style="stroke:none"/>
		</g>
		<marker id="mrkr4-6" class="st2" v:arrowType="4" v:arrowSize="2" v:setback="12.08" refX="-12.08" orient="auto"
				markerUnits="strokeWidth" overflow="visible">
			<use xlink:href="#lend4" transform="scale(-6.04,-6.04) "/>
		</marker>
		<marker id="mrkr4-62" class="st2" v:arrowType="4" v:arrowSize="2" v:setback="11.36" refX="11.36" orient="auto"
				markerUnits="strokeWidth" overflow="visible">
			<use xlink:href="#lend4" transform="scale(6.04) "/>
		</marker>
	</defs>
	<g v:mID="0" v:index="1" v:groupContext="foregroundPage">
		<v:userDefs>
			<v:ud v:nameU="msvThemeOrder" v:val="VT0(0):26"/>
		</v:userDefs>
		<title>Zeichenblatt-1</title>
		<v:pageProperties v:drawingScale="0.0393701" v:pageScale="0.0393701" v:drawingUnits="24" v:shadowOffsetX="8.50394"
				v:shadowOffsetY="-8.50394"/>
		<v:layer v:name="Verbinder" v:index="0"/>
		<g id="shape118-1" v:mID="118" v:groupContext="shape" v:layerMember="0" transform="translate(174.568,-687.72)">
			<title>Dynamischer Verbinder.118</title>
			<path d="M0 1154.55 L349.84 1154.55 L349.84 1128.76" class="st1"/>
		</g>
		<g id="shape107-7" v:mID="107" v:groupContext="shape" v:layerMember="0" transform="translate(538.803,-729.354)">
			<title>Dynamischer Verbinder.107</title>
			<path d="M0 1154.55 L106.08 1154.55 L106.08 969.59" class="st1"/>
		</g>
		<g id="shape106-12" v:mID="106" v:groupContext="shape" v:layerMember="0" transform="translate(281.047,-759.738)">
			<title>Dynamischer Verbinder.106</title>
			<path d="M0 1157.45 L243.36 1157.45 L243.36 1159.78" class="st1"/>
		</g>
		<g id="group95-17" transform="translate(264.351,-743.528)" v:mID="95" v:groupContext="group">
			<v:custProps>
				<v:cp v:nameU="ShapeClass" v:lbl="ShapeClass" v:prompt="" v:type="0" v:format="" v:sortKey="" v:invis="true"
						v:ask="false" v:langID="1031" v:cal="0" v:val="VT4(Sicherheit)"/>
				<v:cp v:nameU="ShapeType" v:lbl="ShapeType" v:prompt="" v:type="0" v:format="" v:sortKey="" v:invis="true"
						v:ask="false" v:langID="1031" v:cal="0" v:val="VT4(Konzeptionell)"/>
				<v:cp v:nameU="SubShapeType" v:lbl="SubShapeType" v:prompt="" v:type="0" v:format="" v:sortKey="" v:invis="true"
						v:ask="false" v:langID="1031" v:cal="0" v:val="VT4(Schloss)"/>
			</v:custProps>
			<v:userDefs>
				<v:ud v:nameU="visVersion" v:prompt="" v:val="VT0(15):26"/>
				<v:ud v:nameU="ShapeClass" v:prompt="" v:val="VT0(5):26"/>
				<v:ud v:nameU="SolSH" v:prompt="" v:val="VT15({BF0433D9-CD73-4EB5-8390-8653BE590246}):41"/>
				<v:ud v:nameU="visLegendShape" v:prompt="" v:val="VT0(2):26"/>
			</v:userDefs>
			<title>Schloss.95</title>
			<g id="shape96-18" v:mID="96" v:groupContext="shape" transform="translate(4.72021,0)">
				<title>Tabelle.96</title>
				<path d="M8.28 1130.09 L8.28 1125.16 C8.28 1123.87 8.62 1122.67 9.22 1121.66 C9.83 1120.63 10.7 1119.8 11.72 1119.27
							 C12.53 1118.84 13.43 1118.61 14.39 1118.61 C15.35 1118.61 16.24 1118.84 17.05 1119.26 C18.06 1119.78
							 18.93 1120.6 19.54 1121.62 C20.15 1122.64 20.51 1123.85 20.51 1125.16 L20.5 1130.09 L8.28 1130.09 ZM28.4
							 1130.09 L22.8 1130.09 L22.8 1125.16 C22.8 1123.43 22.32 1121.81 21.5 1120.44 C20.68 1119.07 19.5 1117.95
							 18.1 1117.23 C16.98 1116.65 15.72 1116.32 14.39 1116.32 C13.06 1116.32 11.79 1116.65 10.67 1117.24 C9.25
							 1117.97 8.07 1119.11 7.25 1120.5 C6.45 1121.86 5.99 1123.46 5.99 1125.16 L5.99 1130.09 L0.39 1130.09
							 C0.17 1130.09 0 1130.26 0 1130.48 L0 1154.16 C0 1154.38 0.17 1154.55 0.39 1154.55 L28.4 1154.55 C28.61
							 1154.55 28.79 1154.38 28.79 1154.16 L28.79 1130.48 C28.79 1130.26 28.61 1130.09 28.4 1130.09 Z"
						class="st3"/>
			</g>
			<g id="shape97-20" v:mID="97" v:groupContext="shape" transform="translate(11.3424,-12.2518)">
				<title>Tabelle.97</title>
				<path d="M0 1150.13 L15.48 1150.13" class="st4"/>
				<path d="M0 1154.55 L15.48 1154.55" class="st4"/>
			</g>
		</g>
		<g id="shape90-24" v:mID="90" v:groupContext="shape" v:layerMember="0" transform="translate(210.265,-1006.13)">
			<title>Dynamischer Verbinder.90</title>
			<path d="M0 1154.55 L0 1303.76 L59.66 1303.76" class="st1"/>
		</g>
		<g id="shape93-29" v:mID="93" v:groupContext="shape" v:layerMember="0" transform="translate(522.263,-931.196)">
			<title>Dynamischer Verbinder.93</title>
			<path d="M0 1154.55 L0 1228.83 L-218.6 1228.83" class="st1"/>
		</g>
		<g id="group62-34" transform="translate(145.296,-837.8)" v:mID="62" v:groupContext="group">
			<v:custProps>
				<v:cp v:nameU="ShapeClass" v:lbl="ShapeClass" v:prompt="" v:type="0" v:format="" v:sortKey="" v:invis="true"
						v:ask="false" v:langID="1031" v:cal="0" v:val="VT4(Sicherheit)"/>
				<v:cp v:nameU="ShapeType" v:lbl="ShapeType" v:prompt="" v:type="0" v:format="" v:sortKey="" v:invis="true"
						v:ask="false" v:langID="1031" v:cal="0" v:val="VT4(Konzeptionell)"/>
				<v:cp v:nameU="SubShapeType" v:lbl="SubShapeType" v:prompt="" v:type="0" v:format="" v:sortKey="" v:invis="true"
						v:ask="false" v:langID="1031" v:cal="0" v:val="VT4(Schloss)"/>
			</v:custProps>
			<v:userDefs>
				<v:ud v:nameU="visVersion" v:prompt="" v:val="VT0(15):26"/>
				<v:ud v:nameU="ShapeClass" v:prompt="" v:val="VT0(5):26"/>
				<v:ud v:nameU="SolSH" v:prompt="" v:val="VT15({BF0433D9-CD73-4EB5-8390-8653BE590246}):41"/>
				<v:ud v:nameU="visLegendShape" v:prompt="" v:val="VT0(2):26"/>
			</v:userDefs>
			<title>Schloss.62</title>
			<g id="shape63-35" v:mID="63" v:groupContext="shape" transform="translate(4.72021,0)">
				<title>Tabelle.63</title>
				<path d="M8.28 1130.09 L8.28 1125.16 C8.28 1123.87 8.62 1122.67 9.22 1121.66 C9.83 1120.63 10.7 1119.8 11.72 1119.27
							 C12.53 1118.84 13.43 1118.61 14.39 1118.61 C15.35 1118.61 16.24 1118.84 17.05 1119.26 C18.06 1119.78
							 18.93 1120.6 19.54 1121.62 C20.15 1122.64 20.51 1123.85 20.51 1125.16 L20.5 1130.09 L8.28 1130.09 ZM28.4
							 1130.09 L22.8 1130.09 L22.8 1125.16 C22.8 1123.43 22.32 1121.81 21.5 1120.44 C20.68 1119.07 19.5 1117.95
							 18.1 1117.23 C16.98 1116.65 15.72 1116.32 14.39 1116.32 C13.06 1116.32 11.79 1116.65 10.67 1117.24 C9.25
							 1117.97 8.07 1119.11 7.25 1120.5 C6.45 1121.86 5.99 1123.46 5.99 1125.16 L5.99 1130.09 L0.39 1130.09
							 C0.17 1130.09 0 1130.26 0 1130.48 L0 1154.16 C0 1154.38 0.17 1154.55 0.39 1154.55 L28.4 1154.55 C28.61
							 1154.55 28.79 1154.38 28.79 1154.16 L28.79 1130.48 C28.79 1130.26 28.61 1130.09 28.4 1130.09 Z"
						class="st3"/>
			</g>
			<g id="shape64-37" v:mID="64" v:groupContext="shape" transform="translate(11.3424,-12.2518)">
				<title>Tabelle.64</title>
				<path d="M0 1150.13 L15.48 1150.13" class="st4"/>
				<path d="M0 1154.55 L15.48 1154.55" class="st4"/>
			</g>
		</g>
		<g id="shape52-41" v:mID="52" v:groupContext="shape" v:layerMember="0" transform="translate(210.265,-1000.56)">
			<title>Dynamischer Verbinder</title>
			<path d="M0 1147.46 L305.96 1147.46" class="st1"/>
		</g>
		<g id="shape53-46" v:mID="53" v:groupContext="shape" v:layerMember="0" transform="translate(522.263,-1007.65)">
			<title>Dynamischer Verbinder.53</title>
			<path d="M0 1154.55 L122.62 1154.55 L122.62 1096.48" class="st5"/>
		</g>
		<g id="shape54-49" v:mID="54" v:groupContext="shape" v:layerMember="0" transform="translate(522.263,-1069.47)">
			<title>Dynamischer Verbinder.54</title>
			<path d="M0 1147.46 L108.23 1147.46" class="st5"/>
		</g>
		<g id="shape55-52" v:mID="55" v:groupContext="shape" v:layerMember="0" transform="translate(210.265,-1069.47)">
			<title>Dynamischer Verbinder.55</title>
			<path d="M0 1147.46 L305.96 1147.46" class="st1"/>
		</g>
		<g id="shape56-57" v:mID="56" v:groupContext="shape" v:layerMember="0" transform="translate(614.622,-570.189)">
			<title>Dynamischer Verbinder.56</title>
			<path d="M0 1153.14 L0 1153.5 L0 1158.09 L-403.2 1158.09 L-403.2 1147.46" class="st6"/>
		</g>
		<g id="shape58-63" v:mID="58" v:groupContext="shape" v:layerMember="0" transform="translate(522.263,-924.11)">
			<title>Dynamischer Verbinder.58</title>
			<path d="M0 1147.46 L108.23 1147.46" class="st5"/>
		</g>
		<g id="shape49-66" v:mID="49" v:groupContext="shape" transform="translate(17.4975,-577.276)">
			<title>Feld</title>
			<v:userDefs>
				<v:ud v:nameU="visVersion" v:val="VT0(15):26"/>
			</v:userDefs>
			<rect x="0" y="595.276" width="387.857" height="559.276" class="st7"/>
		</g>
		<g id="group15-68" transform="translate(503.15,-996.814)" v:mID="15" v:groupContext="group">
			<v:custProps>
				<v:cp v:nameU="ShapeClass" v:lbl="ShapeClass" v:prompt="" v:type="0" v:format="" v:sortKey="" v:invis="true"
						v:ask="false" v:langID="1031" v:cal="0" v:val="VT4(Sicherheit)"/>
				<v:cp v:nameU="ShapeType" v:lbl="ShapeType" v:prompt="" v:type="0" v:format="" v:sortKey="" v:invis="true"
						v:ask="false" v:langID="1031" v:cal="0" v:val="VT4(Konzeptionell)"/>
				<v:cp v:nameU="SubShapeType" v:lbl="SubShapeType" v:prompt="" v:type="0" v:format="" v:sortKey="" v:invis="true"
						v:ask="false" v:langID="1031" v:cal="0" v:val="VT4(Schloss)"/>
			</v:custProps>
			<v:userDefs>
				<v:ud v:nameU="visVersion" v:prompt="" v:val="VT0(15):26"/>
				<v:ud v:nameU="ShapeClass" v:prompt="" v:val="VT0(5):26"/>
				<v:ud v:nameU="SolSH" v:prompt="" v:val="VT15({BF0433D9-CD73-4EB5-8390-8653BE590246}):41"/>
				<v:ud v:nameU="visLegendShape" v:prompt="" v:val="VT0(2):26"/>
			</v:userDefs>
			<title>Schloss.15</title>
			<g id="shape16-69" v:mID="16" v:groupContext="shape" transform="translate(4.72021,0)">
				<title>Tabelle.16</title>
				<path d="M8.28 1130.09 L8.28 1125.16 C8.28 1123.87 8.62 1122.67 9.22 1121.66 C9.83 1120.63 10.7 1119.8 11.72 1119.27
							 C12.53 1118.84 13.43 1118.61 14.39 1118.61 C15.35 1118.61 16.24 1118.84 17.05 1119.26 C18.06 1119.78
							 18.93 1120.6 19.54 1121.62 C20.15 1122.64 20.51 1123.85 20.51 1125.16 L20.5 1130.09 L8.28 1130.09 ZM28.4
							 1130.09 L22.8 1130.09 L22.8 1125.16 C22.8 1123.43 22.32 1121.81 21.5 1120.44 C20.68 1119.07 19.5 1117.95
							 18.1 1117.23 C16.98 1116.65 15.72 1116.32 14.39 1116.32 C13.06 1116.32 11.79 1116.65 10.67 1117.24 C9.25
							 1117.97 8.07 1119.11 7.25 1120.5 C6.45 1121.86 5.99 1123.46 5.99 1125.16 L5.99 1130.09 L0.39 1130.09
							 C0.17 1130.09 0 1130.26 0 1130.48 L0 1154.16 C0 1154.38 0.17 1154.55 0.39 1154.55 L28.4 1154.55 C28.61
							 1154.55 28.79 1154.38 28.79 1154.16 L28.79 1130.48 C28.79 1130.26 28.61 1130.09 28.4 1130.09 Z"
						class="st8"/>
			</g>
			<g id="shape17-71" v:mID="17" v:groupContext="shape" transform="translate(11.3424,-12.2518)">
				<title>Tabelle.17</title>
				<path d="M0 1150.13 L15.48 1150.13" class="st4"/>
				<path d="M0 1154.55 L15.48 1154.55" class="st4"/>
			</g>
		</g>
		<g id="group5-75" transform="translate(503.15,-1065.72)" v:mID="5" v:groupContext="group">
			<v:custProps>
				<v:cp v:nameU="ShapeClass" v:lbl="ShapeClass" v:prompt="" v:type="0" v:format="" v:sortKey="" v:invis="true"
						v:ask="false" v:langID="1031" v:cal="0" v:val="VT4(Sicherheit)"/>
				<v:cp v:nameU="ShapeType" v:lbl="ShapeType" v:prompt="" v:type="0" v:format="" v:sortKey="" v:invis="true"
						v:ask="false" v:langID="1031" v:cal="0" v:val="VT4(Konzeptionell)"/>
				<v:cp v:nameU="SubShapeType" v:lbl="SubShapeType" v:prompt="" v:type="0" v:format="" v:sortKey="" v:invis="true"
						v:ask="false" v:langID="1031" v:cal="0" v:val="VT4(Schloss)"/>
			</v:custProps>
			<v:userDefs>
				<v:ud v:nameU="visVersion" v:prompt="" v:val="VT0(15):26"/>
				<v:ud v:nameU="ShapeClass" v:prompt="" v:val="VT0(5):26"/>
				<v:ud v:nameU="SolSH" v:prompt="" v:val="VT15({BF0433D9-CD73-4EB5-8390-8653BE590246}):41"/>
				<v:ud v:nameU="visLegendShape" v:prompt="" v:val="VT0(2):26"/>
			</v:userDefs>
			<title>Schloss</title>
			<g id="shape6-76" v:mID="6" v:groupContext="shape" transform="translate(4.72021,0)">
				<title>Tabelle.6</title>
				<path d="M8.28 1130.09 L8.28 1125.16 C8.28 1123.87 8.62 1122.67 9.22 1121.66 C9.83 1120.63 10.7 1119.8 11.72 1119.27
							 C12.53 1118.84 13.43 1118.61 14.39 1118.61 C15.35 1118.61 16.24 1118.84 17.05 1119.26 C18.06 1119.78
							 18.93 1120.6 19.54 1121.62 C20.15 1122.64 20.51 1123.85 20.51 1125.16 L20.5 1130.09 L8.28 1130.09 ZM28.4
							 1130.09 L22.8 1130.09 L22.8 1125.16 C22.8 1123.43 22.32 1121.81 21.5 1120.44 C20.68 1119.07 19.5 1117.95
							 18.1 1117.23 C16.98 1116.65 15.72 1116.32 14.39 1116.32 C13.06 1116.32 11.79 1116.65 10.67 1117.24 C9.25
							 1117.97 8.07 1119.11 7.25 1120.5 C6.45 1121.86 5.99 1123.46 5.99 1125.16 L5.99 1130.09 L0.39 1130.09
							 C0.17 1130.09 0 1130.26 0 1130.48 L0 1154.16 C0 1154.38 0.17 1154.55 0.39 1154.55 L28.4 1154.55 C28.61
							 1154.55 28.79 1154.38 28.79 1154.16 L28.79 1130.48 C28.79 1130.26 28.61 1130.09 28.4 1130.09 Z"
						class="st9"/>
			</g>
			<g id="shape7-78" v:mID="7" v:groupContext="shape" transform="translate(11.3424,-12.2518)">
				<title>Tabelle.7</title>
				<path d="M0 1150.13 L15.48 1150.13" class="st4"/>
				<path d="M0 1154.55 L15.48 1154.55" class="st4"/>
			</g>
		</g>
		<g id="group2-82" transform="translate(-621.451,88.8303) rotate(-90)" v:mID="2" v:groupContext="group">
			<v:custProps>
				<v:cp v:nameU="ShapeClass" v:lbl="ShapeClass" v:prompt="" v:type="0" v:format="" v:sortKey="" v:invis="true"
						v:ask="false" v:langID="1031" v:cal="0" v:val="VT4(Sicherheit)"/>
				<v:cp v:nameU="ShapeType" v:lbl="ShapeType" v:prompt="" v:type="0" v:format="" v:sortKey="" v:invis="true"
						v:ask="false" v:langID="1031" v:cal="0" v:val="VT4(Konzeptionell)"/>
				<v:cp v:nameU="SubShapeType" v:lbl="SubShapeType" v:prompt="" v:type="0" v:format="" v:sortKey="" v:invis="true"
						v:ask="false" v:langID="1031" v:cal="0" v:val="VT4(Schlüssel)"/>
			</v:custProps>
			<v:userDefs>
				<v:ud v:nameU="visVersion" v:prompt="" v:val="VT0(15):26"/>
				<v:ud v:nameU="ShapeClass" v:prompt="" v:val="VT0(5):26"/>
				<v:ud v:nameU="SolSH" v:prompt="" v:val="VT15({BF0433D9-CD73-4EB5-8390-8653BE590246}):41"/>
				<v:ud v:nameU="visLegendShape" v:prompt="" v:val="VT0(2):26"/>
			</v:userDefs>
			<title>Schlüssel</title>
			<g id="shape3-83" v:mID="3" v:groupContext="shape" transform="translate(6.26241,0)">
				<title>Tabelle.3</title>
				<path d="M9.15 1137.45 C9.15 1134.92 7.1 1132.88 4.57 1132.88 C2.05 1132.88 0 1134.92 0 1137.45 C0 1139.44 1.27 1141.13
							 3.05 1141.76 L3.05 1153.37 L4.59 1154.55 L6.1 1153.37 L6.1 1152.15 L6.51 1152.15 L6.51 1150.18 L6.07
							 1149.84 L6.07 1149.04 L6.51 1148.93 L6.51 1147.73 L6.02 1147.19 L6.51 1146.85 L6.51 1145.84 L6.07 1145.69
							 L6.04 1144.47 L6.51 1144.34 L6.51 1143.04 L6.1 1142.8 L6.1 1141.76 C7.87 1141.13 9.15 1139.44 9.15 1137.45
							 ZM5.15 1134.34 a0.488029 0.488029 -180 1 0 -0.976059 0 a0.488029 0.488029 -180 1 0 0.976059 0 Z"
						class="st10"/>
				<path d="M9.15 1137.45 C9.15 1134.92 7.1 1132.88 4.57 1132.88 C2.05 1132.88 0 1134.92 0 1137.45 C0 1139.44 1.27 1141.13
							 3.05 1141.76 L3.05 1153.37 L4.59 1154.55 L6.1 1153.37 L6.1 1152.15 L6.51 1152.15 L6.51 1150.18 L6.07
							 1149.84 L6.07 1149.04 L6.51 1148.93 L6.51 1147.73 L6.02 1147.19 L6.51 1146.85 L6.51 1145.84 L6.07 1145.69
							 L6.04 1144.47 L6.51 1144.34 L6.51 1143.04 L6.1 1142.8 L6.1 1141.76 C7.87 1141.13 9.15 1139.44 9.15 1137.45"
						class="st4"/>
				<path d="M3.99 1141.91 L3.99 1152.94" class="st4"/>
				<path d="M5.15 1134.34 a0.488029 0.488029 -180 1 0 -0.976059 0 a0.488029 0.488029 -180 1 0 0.976059 0" class="st4"/>
			</g>
		</g>
		<g id="group8-88" transform="translate(625.768,-1065.72)" v:mID="8" v:groupContext="group">
			<v:custProps>
				<v:cp v:nameU="ShapeClass" v:lbl="ShapeClass" v:prompt="" v:type="0" v:format="" v:sortKey="" v:invis="true"
						v:ask="false" v:langID="1031" v:cal="0" v:val="VT4(Sicherheit)"/>
				<v:cp v:nameU="ShapeType" v:lbl="ShapeType" v:prompt="" v:type="0" v:format="" v:sortKey="" v:invis="true"
						v:ask="false" v:langID="1031" v:cal="0" v:val="VT4(Konzeptionell)"/>
				<v:cp v:nameU="SubShapeType" v:lbl="SubShapeType" v:prompt="" v:type="0" v:format="" v:sortKey="" v:invis="true"
						v:ask="false" v:langID="1031" v:cal="0" v:val="VT4(Schloss)"/>
			</v:custProps>
			<v:userDefs>
				<v:ud v:nameU="visVersion" v:prompt="" v:val="VT0(15):26"/>
				<v:ud v:nameU="ShapeClass" v:prompt="" v:val="VT0(5):26"/>
				<v:ud v:nameU="SolSH" v:prompt="" v:val="VT15({BF0433D9-CD73-4EB5-8390-8653BE590246}):41"/>
				<v:ud v:nameU="visLegendShape" v:prompt="" v:val="VT0(2):26"/>
			</v:userDefs>
			<title>Schloss.8</title>
			<desc>PW1</desc>
			<g id="shape9-89" v:mID="9" v:groupContext="shape" transform="translate(4.72021,0)">
				<title>Tabelle.9</title>
				<path d="M8.28 1130.09 L8.28 1125.16 C8.28 1123.87 8.62 1122.67 9.22 1121.66 C9.83 1120.63 10.7 1119.8 11.72 1119.27
							 C12.53 1118.84 13.43 1118.61 14.39 1118.61 C15.35 1118.61 16.24 1118.84 17.05 1119.26 C18.06 1119.78
							 18.93 1120.6 19.54 1121.62 C20.15 1122.64 20.51 1123.85 20.51 1125.16 L20.5 1130.09 L8.28 1130.09 ZM28.4
							 1130.09 L22.8 1130.09 L22.8 1125.16 C22.8 1123.43 22.32 1121.81 21.5 1120.44 C20.68 1119.07 19.5 1117.95
							 18.1 1117.23 C16.98 1116.65 15.72 1116.32 14.39 1116.32 C13.06 1116.32 11.79 1116.65 10.67 1117.24 C9.25
							 1117.97 8.07 1119.11 7.25 1120.5 C6.45 1121.86 5.99 1123.46 5.99 1125.16 L5.99 1130.09 L0.39 1130.09
							 C0.17 1130.09 0 1130.26 0 1130.48 L0 1154.16 C0 1154.38 0.17 1154.55 0.39 1154.55 L28.4 1154.55 C28.61
							 1154.55 28.79 1154.38 28.79 1154.16 L28.79 1130.48 C28.79 1130.26 28.61 1130.09 28.4 1130.09 Z"
						class="st11"/>
			</g>
			<g id="shape10-91" v:mID="10" v:groupContext="shape" transform="translate(11.3424,-12.2518)">
				<title>Tabelle.10</title>
				<path d="M0 1150.13 L15.48 1150.13" class="st4"/>
				<path d="M0 1154.55 L15.48 1154.55" class="st4"/>
			</g>
			<g id="shape8-95" v:mID="8" v:groupContext="groupContent">
				<v:textBlock v:margins="rect(4,4,4,4)" v:tabSpace="42.5197"/>
				<v:textRect cx="19.1137" cy="1164.55" width="29.4" height="20.0036"/>
				<text x="9.55" y="1167.55" class="st12" v:langID="2055"><v:paragraph v:horizAlign="1"/><v:tabList/>PW1</text>			</g>
		</g>
		<g id="group11-97" transform="translate(-933.449,88.8303) rotate(-90)" v:mID="11" v:groupContext="group">
			<v:custProps>
				<v:cp v:nameU="ShapeClass" v:lbl="ShapeClass" v:prompt="" v:type="0" v:format="" v:sortKey="" v:invis="true"
						v:ask="false" v:langID="1031" v:cal="0" v:val="VT4(Sicherheit)"/>
				<v:cp v:nameU="ShapeType" v:lbl="ShapeType" v:prompt="" v:type="0" v:format="" v:sortKey="" v:invis="true"
						v:ask="false" v:langID="1031" v:cal="0" v:val="VT4(Konzeptionell)"/>
				<v:cp v:nameU="SubShapeType" v:lbl="SubShapeType" v:prompt="" v:type="0" v:format="" v:sortKey="" v:invis="true"
						v:ask="false" v:langID="1031" v:cal="0" v:val="VT4(Schlüssel)"/>
			</v:custProps>
			<v:userDefs>
				<v:ud v:nameU="visVersion" v:prompt="" v:val="VT0(15):26"/>
				<v:ud v:nameU="ShapeClass" v:prompt="" v:val="VT0(5):26"/>
				<v:ud v:nameU="SolSH" v:prompt="" v:val="VT15({BF0433D9-CD73-4EB5-8390-8653BE590246}):41"/>
				<v:ud v:nameU="visLegendShape" v:prompt="" v:val="VT0(2):26"/>
			</v:userDefs>
			<title>Schlüssel.11</title>
			<g id="shape12-98" v:mID="12" v:groupContext="shape" transform="translate(6.26241,0)">
				<title>Tabelle.12</title>
				<path d="M9.15 1137.45 C9.15 1134.92 7.1 1132.88 4.57 1132.88 C2.05 1132.88 0 1134.92 0 1137.45 C0 1139.44 1.27 1141.13
							 3.05 1141.76 L3.05 1153.37 L4.59 1154.55 L6.1 1153.37 L6.1 1152.15 L6.51 1152.15 L6.51 1150.18 L6.07
							 1149.84 L6.07 1149.04 L6.51 1148.93 L6.51 1147.73 L6.02 1147.19 L6.51 1146.85 L6.51 1145.84 L6.07 1145.69
							 L6.04 1144.47 L6.51 1144.34 L6.51 1143.04 L6.1 1142.8 L6.1 1141.76 C7.87 1141.13 9.15 1139.44 9.15 1137.45
							 ZM5.15 1134.34 a0.488029 0.488029 -180 1 0 -0.976059 0 a0.488029 0.488029 -180 1 0 0.976059 0 Z"
						class="st13"/>
				<path d="M9.15 1137.45 C9.15 1134.92 7.1 1132.88 4.57 1132.88 C2.05 1132.88 0 1134.92 0 1137.45 C0 1139.44 1.27 1141.13
							 3.05 1141.76 L3.05 1153.37 L4.59 1154.55 L6.1 1153.37 L6.1 1152.15 L6.51 1152.15 L6.51 1150.18 L6.07
							 1149.84 L6.07 1149.04 L6.51 1148.93 L6.51 1147.73 L6.02 1147.19 L6.51 1146.85 L6.51 1145.84 L6.07 1145.69
							 L6.04 1144.47 L6.51 1144.34 L6.51 1143.04 L6.1 1142.8 L6.1 1141.76 C7.87 1141.13 9.15 1139.44 9.15 1137.45"
						class="st4"/>
				<path d="M3.99 1141.91 L3.99 1152.94" class="st4"/>
				<path d="M5.15 1134.34 a0.488029 0.488029 -180 1 0 -0.976059 0 a0.488029 0.488029 -180 1 0 0.976059 0" class="st4"/>
			</g>
		</g>
		<g id="group13-103" transform="translate(-621.451,157.738) rotate(-90)" v:mID="13" v:groupContext="group">
			<v:custProps>
				<v:cp v:nameU="ShapeClass" v:lbl="ShapeClass" v:prompt="" v:type="0" v:format="" v:sortKey="" v:invis="true"
						v:ask="false" v:langID="1031" v:cal="0" v:val="VT4(Sicherheit)"/>
				<v:cp v:nameU="ShapeType" v:lbl="ShapeType" v:prompt="" v:type="0" v:format="" v:sortKey="" v:invis="true"
						v:ask="false" v:langID="1031" v:cal="0" v:val="VT4(Konzeptionell)"/>
				<v:cp v:nameU="SubShapeType" v:lbl="SubShapeType" v:prompt="" v:type="0" v:format="" v:sortKey="" v:invis="true"
						v:ask="false" v:langID="1031" v:cal="0" v:val="VT4(Schlüssel)"/>
			</v:custProps>
			<v:userDefs>
				<v:ud v:nameU="visVersion" v:prompt="" v:val="VT0(15):26"/>
				<v:ud v:nameU="ShapeClass" v:prompt="" v:val="VT0(5):26"/>
				<v:ud v:nameU="SolSH" v:prompt="" v:val="VT15({BF0433D9-CD73-4EB5-8390-8653BE590246}):41"/>
				<v:ud v:nameU="visLegendShape" v:prompt="" v:val="VT0(2):26"/>
			</v:userDefs>
			<title>Schlüssel.13</title>
			<g id="shape14-104" v:mID="14" v:groupContext="shape" transform="translate(6.26241,0)">
				<title>Tabelle.14</title>
				<path d="M9.15 1137.45 C9.15 1134.92 7.1 1132.88 4.57 1132.88 C2.05 1132.88 0 1134.92 0 1137.45 C0 1139.44 1.27 1141.13
							 3.05 1141.76 L3.05 1153.37 L4.59 1154.55 L6.1 1153.37 L6.1 1152.15 L6.51 1152.15 L6.51 1150.18 L6.07
							 1149.84 L6.07 1149.04 L6.51 1148.93 L6.51 1147.73 L6.02 1147.19 L6.51 1146.85 L6.51 1145.84 L6.07 1145.69
							 L6.04 1144.47 L6.51 1144.34 L6.51 1143.04 L6.1 1142.8 L6.1 1141.76 C7.87 1141.13 9.15 1139.44 9.15 1137.45
							 ZM5.15 1134.34 a0.488029 0.488029 -180 1 0 -0.976059 0 a0.488029 0.488029 -180 1 0 0.976059 0 Z"
						class="st10"/>
				<path d="M9.15 1137.45 C9.15 1134.92 7.1 1132.88 4.57 1132.88 C2.05 1132.88 0 1134.92 0 1137.45 C0 1139.44 1.27 1141.13
							 3.05 1141.76 L3.05 1153.37 L4.59 1154.55 L6.1 1153.37 L6.1 1152.15 L6.51 1152.15 L6.51 1150.18 L6.07
							 1149.84 L6.07 1149.04 L6.51 1148.93 L6.51 1147.73 L6.02 1147.19 L6.51 1146.85 L6.51 1145.84 L6.07 1145.69
							 L6.04 1144.47 L6.51 1144.34 L6.51 1143.04 L6.1 1142.8 L6.1 1141.76 C7.87 1141.13 9.15 1139.44 9.15 1137.45"
						class="st4"/>
				<path d="M3.99 1141.91 L3.99 1152.94" class="st4"/>
				<path d="M5.15 1134.34 a0.488029 0.488029 -180 1 0 -0.976059 0 a0.488029 0.488029 -180 1 0 0.976059 0" class="st4"/>
			</g>
		</g>
		<g id="group18-109" transform="translate(-933.449,157.738) rotate(-90)" v:mID="18" v:groupContext="group">
			<v:custProps>
				<v:cp v:nameU="ShapeClass" v:lbl="ShapeClass" v:prompt="" v:type="0" v:format="" v:sortKey="" v:invis="true"
						v:ask="false" v:langID="1031" v:cal="0" v:val="VT4(Sicherheit)"/>
				<v:cp v:nameU="ShapeType" v:lbl="ShapeType" v:prompt="" v:type="0" v:format="" v:sortKey="" v:invis="true"
						v:ask="false" v:langID="1031" v:cal="0" v:val="VT4(Konzeptionell)"/>
				<v:cp v:nameU="SubShapeType" v:lbl="SubShapeType" v:prompt="" v:type="0" v:format="" v:sortKey="" v:invis="true"
						v:ask="false" v:langID="1031" v:cal="0" v:val="VT4(Schlüssel)"/>
			</v:custProps>
			<v:userDefs>
				<v:ud v:nameU="visVersion" v:prompt="" v:val="VT0(15):26"/>
				<v:ud v:nameU="ShapeClass" v:prompt="" v:val="VT0(5):26"/>
				<v:ud v:nameU="SolSH" v:prompt="" v:val="VT15({BF0433D9-CD73-4EB5-8390-8653BE590246}):41"/>
				<v:ud v:nameU="visLegendShape" v:prompt="" v:val="VT0(2):26"/>
			</v:userDefs>
			<title>Schlüssel.18</title>
			<g id="shape19-110" v:mID="19" v:groupContext="shape" transform="translate(6.26241,0)">
				<title>Tabelle.19</title>
				<path d="M9.15 1137.45 C9.15 1134.92 7.1 1132.88 4.57 1132.88 C2.05 1132.88 0 1134.92 0 1137.45 C0 1139.44 1.27 1141.13
							 3.05 1141.76 L3.05 1153.37 L4.59 1154.55 L6.1 1153.37 L6.1 1152.15 L6.51 1152.15 L6.51 1150.18 L6.07
							 1149.84 L6.07 1149.04 L6.51 1148.93 L6.51 1147.73 L6.02 1147.19 L6.51 1146.85 L6.51 1145.84 L6.07 1145.69
							 L6.04 1144.47 L6.51 1144.34 L6.51 1143.04 L6.1 1142.8 L6.1 1141.76 C7.87 1141.13 9.15 1139.44 9.15 1137.45
							 ZM5.15 1134.34 a0.488029 0.488029 -180 1 0 -0.976059 0 a0.488029 0.488029 -180 1 0 0.976059 0 Z"
						class="st14"/>
				<path d="M9.15 1137.45 C9.15 1134.92 7.1 1132.88 4.57 1132.88 C2.05 1132.88 0 1134.92 0 1137.45 C0 1139.44 1.27 1141.13
							 3.05 1141.76 L3.05 1153.37 L4.59 1154.55 L6.1 1153.37 L6.1 1152.15 L6.51 1152.15 L6.51 1150.18 L6.07
							 1149.84 L6.07 1149.04 L6.51 1148.93 L6.51 1147.73 L6.02 1147.19 L6.51 1146.85 L6.51 1145.84 L6.07 1145.69
							 L6.04 1144.47 L6.51 1144.34 L6.51 1143.04 L6.1 1142.8 L6.1 1141.76 C7.87 1141.13 9.15 1139.44 9.15 1137.45"
						class="st4"/>
				<path d="M3.99 1141.91 L3.99 1152.94" class="st4"/>
				<path d="M5.15 1134.34 a0.488029 0.488029 -180 1 0 -0.976059 0 a0.488029 0.488029 -180 1 0 0.976059 0" class="st4"/>
			</g>
		</g>
		<g id="shape20-115" v:mID="20" v:groupContext="shape" transform="translate(152.143,-996.814)">
			<title>Benutzer</title>
			<v:userDefs>
				<v:ud v:nameU="msvShapeCategories" v:prompt="" v:val="VT4(Icon)"/>
				<v:ud v:nameU="visVersion" v:prompt="" v:val="VT0(15):26"/>
			</v:userDefs>
			<path d="M19.06 1139.94 A2.78332 2.82785 -180 0 0 21.84 1137.11 A2.78332 2.82785 -180 0 0 19.06 1134.29 A2.78436 2.82891
						 -180 0 0 16.28 1137.11 A2.78489 2.82944 -180 0 0 19.06 1139.94 ZM19.06 1132.88 A4.17125 4.23799 0 0 1 23.23
						 1137.11 A4.17125 4.23799 0 0 1 19.06 1141.35 A4.17108 4.23781 0 0 1 14.89 1137.11 A4.17108 4.23781 0 0 1
						 19.06 1132.88 ZM6.97 1152.92 A4.8609 4.93867 -180 0 0 12.53 1150.1 A6.11509 6.21293 -180 0 0 9.86 1144.61
						 A20456 20783.3 -180 0 0 6.97 1150.39 A10391.8 10558.1 0 0 1 4.08 1144.61 A6.11576 6.21362 -180 0 0 1.41
						 1150.1 A4.86035 4.93811 -180 0 0 6.97 1152.92 ZM9.72 1142.87 A7.32891 7.44617 0 0 1 13.92 1150.1 A5.55418
						 5.64305 0 0 1 6.97 1154.33 A5.55373 5.64259 0 0 1 0.02 1150.1 A7.33199 7.4493 0 0 1 4.22 1142.87 A4.99248
						 5.07236 -180 0 0 4.98 1143.3 L6.97 1147.27 L8.96 1143.3 A4.91617 4.99483 -180 0 0 9.72 1142.87 ZM21.8 1141.19
						 A7.32891 7.44617 0 0 1 26.01 1148.42 A5.55418 5.64305 0 0 1 19.06 1152.65 A11.0716 11.2487 0 0 1 14.41 1151.8
						 A4.2206 4.28813 -180 0 0 14.72 1150.37 A9.58332 9.73665 -180 0 0 19.06 1151.24 A4.8609 4.93867 -180 0 0
						 24.62 1148.42 A6.11363 6.21145 -180 0 0 21.95 1142.93 A13082.3 13291.6 -180 0 0 19.06 1148.71 A14560.3 14793.2
						 0 0 1 16.17 1142.93 A5.54176 5.63042 -180 0 0 13.88 1145.96 A7.8707 7.99663 -180 0 0 12.98 1144.45 A6.54167
						 6.64634 0 0 1 16.31 1141.19 A4.99248 5.07236 -180 0 0 17.07 1141.62 L19.06 1145.59 L21.05 1141.62 A4.91617
						 4.99483 -180 0 0 21.8 1141.19 ZM6.97 1141.62 A2.7828 2.82732 -180 0 0 9.75 1138.79 A2.78332 2.82785 -180
						 0 0 6.97 1135.97 A2.78436 2.82891 -180 0 0 4.19 1138.79 A2.78489 2.82944 -180 0 0 6.97 1141.62 ZM6.97 1134.56
						 A4.17125 4.23799 0 0 1 11.14 1138.79 A4.17125 4.23799 0 0 1 6.97 1143.03 A4.17108 4.23781 0 0 1 2.8 1138.79
						 A4.17108 4.23781 0 0 1 6.97 1134.56 Z" class="st15"/>
		</g>
		<g id="shape39-117" v:mID="39" v:groupContext="shape" transform="translate(152.143,-1065.72)">
			<title>Benutzer.39</title>
			<v:userDefs>
				<v:ud v:nameU="msvShapeCategories" v:prompt="" v:val="VT4(Icon)"/>
				<v:ud v:nameU="visVersion" v:prompt="" v:val="VT0(15):26"/>
			</v:userDefs>
			<path d="M19.06 1139.94 A2.78332 2.82785 -180 0 0 21.84 1137.11 A2.78332 2.82785 -180 0 0 19.06 1134.29 A2.78436 2.82891
						 -180 0 0 16.28 1137.11 A2.78489 2.82944 -180 0 0 19.06 1139.94 ZM19.06 1132.88 A4.17125 4.23799 0 0 1 23.23
						 1137.11 A4.17125 4.23799 0 0 1 19.06 1141.35 A4.17108 4.23781 0 0 1 14.89 1137.11 A4.17108 4.23781 0 0 1
						 19.06 1132.88 ZM6.97 1152.92 A4.8609 4.93867 -180 0 0 12.53 1150.1 A6.11509 6.21293 -180 0 0 9.86 1144.61
						 A20456 20783.3 -180 0 0 6.97 1150.39 A10391.8 10558.1 0 0 1 4.08 1144.61 A6.11576 6.21362 -180 0 0 1.41
						 1150.1 A4.86035 4.93811 -180 0 0 6.97 1152.92 ZM9.72 1142.87 A7.32891 7.44617 0 0 1 13.92 1150.1 A5.55418
						 5.64305 0 0 1 6.97 1154.33 A5.55373 5.64259 0 0 1 0.02 1150.1 A7.33199 7.4493 0 0 1 4.22 1142.87 A4.99248
						 5.07236 -180 0 0 4.98 1143.3 L6.97 1147.27 L8.96 1143.3 A4.91617 4.99483 -180 0 0 9.72 1142.87 ZM21.8 1141.19
						 A7.32891 7.44617 0 0 1 26.01 1148.42 A5.55418 5.64305 0 0 1 19.06 1152.65 A11.0716 11.2487 0 0 1 14.41 1151.8
						 A4.2206 4.28813 -180 0 0 14.72 1150.37 A9.58332 9.73665 -180 0 0 19.06 1151.24 A4.8609 4.93867 -180 0 0
						 24.62 1148.42 A6.11363 6.21145 -180 0 0 21.95 1142.93 A13082.3 13291.6 -180 0 0 19.06 1148.71 A14560.3 14793.2
						 0 0 1 16.17 1142.93 A5.54176 5.63042 -180 0 0 13.88 1145.96 A7.8707 7.99663 -180 0 0 12.98 1144.45 A6.54167
						 6.64634 0 0 1 16.31 1141.19 A4.99248 5.07236 -180 0 0 17.07 1141.62 L19.06 1145.59 L21.05 1141.62 A4.91617
						 4.99483 -180 0 0 21.8 1141.19 ZM6.97 1141.62 A2.7828 2.82732 -180 0 0 9.75 1138.79 A2.78332 2.82785 -180
						 0 0 6.97 1135.97 A2.78436 2.82891 -180 0 0 4.19 1138.79 A2.78489 2.82944 -180 0 0 6.97 1141.62 ZM6.97 1134.56
						 A4.17125 4.23799 0 0 1 11.14 1138.79 A4.17125 4.23799 0 0 1 6.97 1143.03 A4.17108 4.23781 0 0 1 2.8 1138.79
						 A4.17108 4.23781 0 0 1 6.97 1134.56 Z" class="st16"/>
		</g>
		<g id="group40-119" transform="translate(625.768,-920.359)" v:mID="40" v:groupContext="group">
			<v:custProps>
				<v:cp v:nameU="ShapeClass" v:lbl="ShapeClass" v:prompt="" v:type="0" v:format="" v:sortKey="" v:invis="true"
						v:ask="false" v:langID="1031" v:cal="0" v:val="VT4(Sicherheit)"/>
				<v:cp v:nameU="ShapeType" v:lbl="ShapeType" v:prompt="" v:type="0" v:format="" v:sortKey="" v:invis="true"
						v:ask="false" v:langID="1031" v:cal="0" v:val="VT4(Konzeptionell)"/>
				<v:cp v:nameU="SubShapeType" v:lbl="SubShapeType" v:prompt="" v:type="0" v:format="" v:sortKey="" v:invis="true"
						v:ask="false" v:langID="1031" v:cal="0" v:val="VT4(Schloss)"/>
			</v:custProps>
			<v:userDefs>
				<v:ud v:nameU="visVersion" v:prompt="" v:val="VT0(15):26"/>
				<v:ud v:nameU="ShapeClass" v:prompt="" v:val="VT0(5):26"/>
				<v:ud v:nameU="SolSH" v:prompt="" v:val="VT15({BF0433D9-CD73-4EB5-8390-8653BE590246}):41"/>
				<v:ud v:nameU="visLegendShape" v:prompt="" v:val="VT0(2):26"/>
			</v:userDefs>
			<title>Schloss.40</title>
			<desc>PW2</desc>
			<g id="shape41-120" v:mID="41" v:groupContext="shape" transform="translate(4.72021,0)">
				<title>Tabelle.41</title>
				<path d="M8.28 1130.09 L8.28 1125.16 C8.28 1123.87 8.62 1122.67 9.22 1121.66 C9.83 1120.63 10.7 1119.8 11.72 1119.27
							 C12.53 1118.84 13.43 1118.61 14.39 1118.61 C15.35 1118.61 16.24 1118.84 17.05 1119.26 C18.06 1119.78
							 18.93 1120.6 19.54 1121.62 C20.15 1122.64 20.51 1123.85 20.51 1125.16 L20.5 1130.09 L8.28 1130.09 ZM28.4
							 1130.09 L22.8 1130.09 L22.8 1125.16 C22.8 1123.43 22.32 1121.81 21.5 1120.44 C20.68 1119.07 19.5 1117.95
							 18.1 1117.23 C16.98 1116.65 15.72 1116.32 14.39 1116.32 C13.06 1116.32 11.79 1116.65 10.67 1117.24 C9.25
							 1117.97 8.07 1119.11 7.25 1120.5 C6.45 1121.86 5.99 1123.46 5.99 1125.16 L5.99 1130.09 L0.39 1130.09
							 C0.17 1130.09 0 1130.26 0 1130.48 L0 1154.16 C0 1154.38 0.17 1154.55 0.39 1154.55 L28.4 1154.55 C28.61
							 1154.55 28.79 1154.38 28.79 1154.16 L28.79 1130.48 C28.79 1130.26 28.61 1130.09 28.4 1130.09 Z"
						class="st17"/>
			</g>
			<g id="shape42-122" v:mID="42" v:groupContext="shape" transform="translate(11.3424,-12.2518)">
				<title>Tabelle.42</title>
				<path d="M0 1150.13 L15.48 1150.13" class="st4"/>
				<path d="M0 1154.55 L15.48 1154.55" class="st4"/>
			</g>
			<g id="shape40-126" v:mID="40" v:groupContext="groupContent">
				<v:textBlock v:margins="rect(4,4,4,4)" v:tabSpace="42.5197"/>
				<v:textRect cx="19.1137" cy="1164.55" width="29.4" height="20.0036"/>
				<text x="9.55" y="1167.55" class="st12" v:langID="2055"><v:paragraph v:horizAlign="1"/><v:tabList/>PW2</text>			</g>
		</g>
		<g id="group43-128" transform="translate(503.15,-920.359)" v:mID="43" v:groupContext="group">
			<v:custProps>
				<v:cp v:nameU="ShapeClass" v:lbl="ShapeClass" v:prompt="" v:type="0" v:format="" v:sortKey="" v:invis="true"
						v:ask="false" v:langID="1031" v:cal="0" v:val="VT4(Sicherheit)"/>
				<v:cp v:nameU="ShapeType" v:lbl="ShapeType" v:prompt="" v:type="0" v:format="" v:sortKey="" v:invis="true"
						v:ask="false" v:langID="1031" v:cal="0" v:val="VT4(Konzeptionell)"/>
				<v:cp v:nameU="SubShapeType" v:lbl="SubShapeType" v:prompt="" v:type="0" v:format="" v:sortKey="" v:invis="true"
						v:ask="false" v:langID="1031" v:cal="0" v:val="VT4(Schloss)"/>
			</v:custProps>
			<v:userDefs>
				<v:ud v:nameU="visVersion" v:prompt="" v:val="VT0(15):26"/>
				<v:ud v:nameU="ShapeClass" v:prompt="" v:val="VT0(5):26"/>
				<v:ud v:nameU="SolSH" v:prompt="" v:val="VT15({BF0433D9-CD73-4EB5-8390-8653BE590246}):41"/>
				<v:ud v:nameU="visLegendShape" v:prompt="" v:val="VT0(2):26"/>
			</v:userDefs>
			<title>Schloss.43</title>
			<g id="shape44-129" v:mID="44" v:groupContext="shape" transform="translate(4.72021,0)">
				<title>Tabelle.44</title>
				<path d="M8.28 1130.09 L8.28 1125.16 C8.28 1123.87 8.62 1122.67 9.22 1121.66 C9.83 1120.63 10.7 1119.8 11.72 1119.27
							 C12.53 1118.84 13.43 1118.61 14.39 1118.61 C15.35 1118.61 16.24 1118.84 17.05 1119.26 C18.06 1119.78
							 18.93 1120.6 19.54 1121.62 C20.15 1122.64 20.51 1123.85 20.51 1125.16 L20.5 1130.09 L8.28 1130.09 ZM28.4
							 1130.09 L22.8 1130.09 L22.8 1125.16 C22.8 1123.43 22.32 1121.81 21.5 1120.44 C20.68 1119.07 19.5 1117.95
							 18.1 1117.23 C16.98 1116.65 15.72 1116.32 14.39 1116.32 C13.06 1116.32 11.79 1116.65 10.67 1117.24 C9.25
							 1117.97 8.07 1119.11 7.25 1120.5 C6.45 1121.86 5.99 1123.46 5.99 1125.16 L5.99 1130.09 L0.39 1130.09
							 C0.17 1130.09 0 1130.26 0 1130.48 L0 1154.16 C0 1154.38 0.17 1154.55 0.39 1154.55 L28.4 1154.55 C28.61
							 1154.55 28.79 1154.38 28.79 1154.16 L28.79 1130.48 C28.79 1130.26 28.61 1130.09 28.4 1130.09 Z"
						class="st8"/>
			</g>
			<g id="shape45-131" v:mID="45" v:groupContext="shape" transform="translate(11.3424,-12.2518)">
				<title>Tabelle.45</title>
				<path d="M0 1150.13 L15.48 1150.13" class="st4"/>
				<path d="M0 1154.55 L15.48 1154.55" class="st4"/>
			</g>
		</g>
		<g id="group46-135" transform="translate(-621.451,234.192) rotate(-90)" v:mID="46" v:groupContext="group">
			<v:custProps>
				<v:cp v:nameU="ShapeClass" v:lbl="ShapeClass" v:prompt="" v:type="0" v:format="" v:sortKey="" v:invis="true"
						v:ask="false" v:langID="1031" v:cal="0" v:val="VT4(Sicherheit)"/>
				<v:cp v:nameU="ShapeType" v:lbl="ShapeType" v:prompt="" v:type="0" v:format="" v:sortKey="" v:invis="true"
						v:ask="false" v:langID="1031" v:cal="0" v:val="VT4(Konzeptionell)"/>
				<v:cp v:nameU="SubShapeType" v:lbl="SubShapeType" v:prompt="" v:type="0" v:format="" v:sortKey="" v:invis="true"
						v:ask="false" v:langID="1031" v:cal="0" v:val="VT4(Schlüssel)"/>
			</v:custProps>
			<v:userDefs>
				<v:ud v:nameU="visVersion" v:prompt="" v:val="VT0(15):26"/>
				<v:ud v:nameU="ShapeClass" v:prompt="" v:val="VT0(5):26"/>
				<v:ud v:nameU="SolSH" v:prompt="" v:val="VT15({BF0433D9-CD73-4EB5-8390-8653BE590246}):41"/>
				<v:ud v:nameU="visLegendShape" v:prompt="" v:val="VT0(2):26"/>
			</v:userDefs>
			<title>Schlüssel.46</title>
			<g id="shape47-136" v:mID="47" v:groupContext="shape" transform="translate(6.26241,0)">
				<title>Tabelle.47</title>
				<path d="M9.15 1137.45 C9.15 1134.92 7.1 1132.88 4.57 1132.88 C2.05 1132.88 0 1134.92 0 1137.45 C0 1139.44 1.27 1141.13
							 3.05 1141.76 L3.05 1153.37 L4.59 1154.55 L6.1 1153.37 L6.1 1152.15 L6.51 1152.15 L6.51 1150.18 L6.07
							 1149.84 L6.07 1149.04 L6.51 1148.93 L6.51 1147.73 L6.02 1147.19 L6.51 1146.85 L6.51 1145.84 L6.07 1145.69
							 L6.04 1144.47 L6.51 1144.34 L6.51 1143.04 L6.1 1142.8 L6.1 1141.76 C7.87 1141.13 9.15 1139.44 9.15 1137.45
							 ZM5.15 1134.34 a0.488029 0.488029 -180 1 0 -0.976059 0 a0.488029 0.488029 -180 1 0 0.976059 0 Z"
						class="st18"/>
				<path d="M9.15 1137.45 C9.15 1134.92 7.1 1132.88 4.57 1132.88 C2.05 1132.88 0 1134.92 0 1137.45 C0 1139.44 1.27 1141.13
							 3.05 1141.76 L3.05 1153.37 L4.59 1154.55 L6.1 1153.37 L6.1 1152.15 L6.51 1152.15 L6.51 1150.18 L6.07
							 1149.84 L6.07 1149.04 L6.51 1148.93 L6.51 1147.73 L6.02 1147.19 L6.51 1146.85 L6.51 1145.84 L6.07 1145.69
							 L6.04 1144.47 L6.51 1144.34 L6.51 1143.04 L6.1 1142.8 L6.1 1141.76 C7.87 1141.13 9.15 1139.44 9.15 1137.45"
						class="st4"/>
				<path d="M3.99 1141.91 L3.99 1152.94" class="st4"/>
				<path d="M5.15 1134.34 a0.488029 0.488029 -180 1 0 -0.976059 0 a0.488029 0.488029 -180 1 0 0.976059 0" class="st4"/>
			</g>
		</g>
		<g id="shape50-141" v:mID="50" v:groupContext="shape" transform="translate(405.354,-577.276)">
			<title>Feld.50</title>
			<v:userDefs>
				<v:ud v:nameU="visVersion" v:val="VT0(15):26"/>
			</v:userDefs>
			<rect x="0" y="595.276" width="418.535" height="559.276" class="st7"/>
		</g>
		<g id="group60-143" transform="translate(-860.249,411.024) rotate(-90)" v:mID="60" v:groupContext="group">
			<v:custProps>
				<v:cp v:nameU="ShapeClass" v:lbl="ShapeClass" v:prompt="" v:type="0" v:format="" v:sortKey="" v:invis="true"
						v:ask="false" v:langID="1031" v:cal="0" v:val="VT4(Sicherheit)"/>
				<v:cp v:nameU="ShapeType" v:lbl="ShapeType" v:prompt="" v:type="0" v:format="" v:sortKey="" v:invis="true"
						v:ask="false" v:langID="1031" v:cal="0" v:val="VT4(Konzeptionell)"/>
				<v:cp v:nameU="SubShapeType" v:lbl="SubShapeType" v:prompt="" v:type="0" v:format="" v:sortKey="" v:invis="true"
						v:ask="false" v:langID="1031" v:cal="0" v:val="VT4(Schlüssel)"/>
			</v:custProps>
			<v:userDefs>
				<v:ud v:nameU="visVersion" v:prompt="" v:val="VT0(15):26"/>
				<v:ud v:nameU="ShapeClass" v:prompt="" v:val="VT0(5):26"/>
				<v:ud v:nameU="SolSH" v:prompt="" v:val="VT15({BF0433D9-CD73-4EB5-8390-8653BE590246}):41"/>
				<v:ud v:nameU="visLegendShape" v:prompt="" v:val="VT0(2):26"/>
			</v:userDefs>
			<title>Schlüssel.60</title>
			<g id="shape61-144" v:mID="61" v:groupContext="shape" transform="translate(6.26241,0)">
				<title>Tabelle.61</title>
				<path d="M9.15 1137.45 C9.15 1134.92 7.1 1132.88 4.57 1132.88 C2.05 1132.88 0 1134.92 0 1137.45 C0 1139.44 1.27 1141.13
							 3.05 1141.76 L3.05 1153.37 L4.59 1154.55 L6.1 1153.37 L6.1 1152.15 L6.51 1152.15 L6.51 1150.18 L6.07
							 1149.84 L6.07 1149.04 L6.51 1148.93 L6.51 1147.73 L6.02 1147.19 L6.51 1146.85 L6.51 1145.84 L6.07 1145.69
							 L6.04 1144.47 L6.51 1144.34 L6.51 1143.04 L6.1 1142.8 L6.1 1141.76 C7.87 1141.13 9.15 1139.44 9.15 1137.45
							 ZM5.15 1134.34 a0.488029 0.488029 -180 1 0 -0.976059 0 a0.488029 0.488029 -180 1 0 0.976059 0 Z"
						class="st18"/>
				<path d="M9.15 1137.45 C9.15 1134.92 7.1 1132.88 4.57 1132.88 C2.05 1132.88 0 1134.92 0 1137.45 C0 1139.44 1.27 1141.13
							 3.05 1141.76 L3.05 1153.37 L4.59 1154.55 L6.1 1153.37 L6.1 1152.15 L6.51 1152.15 L6.51 1150.18 L6.07
							 1149.84 L6.07 1149.04 L6.51 1148.93 L6.51 1147.73 L6.02 1147.19 L6.51 1146.85 L6.51 1145.84 L6.07 1145.69
							 L6.04 1144.47 L6.51 1144.34 L6.51 1143.04 L6.1 1142.8 L6.1 1141.76 C7.87 1141.13 9.15 1139.44 9.15 1137.45"
						class="st4"/>
				<path d="M3.99 1141.91 L3.99 1152.94" class="st4"/>
				<path d="M5.15 1134.34 a0.488029 0.488029 -180 1 0 -0.976059 0 a0.488029 0.488029 -180 1 0 0.976059 0" class="st4"/>
			</g>
		</g>
		<g id="group82-149" transform="translate(-856.913,308.475) rotate(-90)" v:mID="82" v:groupContext="group">
			<v:custProps>
				<v:cp v:nameU="ShapeClass" v:lbl="ShapeClass" v:prompt="" v:type="0" v:format="" v:sortKey="" v:invis="true"
						v:ask="false" v:langID="1031" v:cal="0" v:val="VT4(Sicherheit)"/>
				<v:cp v:nameU="ShapeType" v:lbl="ShapeType" v:prompt="" v:type="0" v:format="" v:sortKey="" v:invis="true"
						v:ask="false" v:langID="1031" v:cal="0" v:val="VT4(Konzeptionell)"/>
				<v:cp v:nameU="SubShapeType" v:lbl="SubShapeType" v:prompt="" v:type="0" v:format="" v:sortKey="" v:invis="true"
						v:ask="false" v:langID="1031" v:cal="0" v:val="VT4(Schlüssel)"/>
			</v:custProps>
			<v:userDefs>
				<v:ud v:nameU="visVersion" v:prompt="" v:val="VT0(15):26"/>
				<v:ud v:nameU="ShapeClass" v:prompt="" v:val="VT0(5):26"/>
				<v:ud v:nameU="SolSH" v:prompt="" v:val="VT15({BF0433D9-CD73-4EB5-8390-8653BE590246}):41"/>
				<v:ud v:nameU="visLegendShape" v:prompt="" v:val="VT0(2):26"/>
			</v:userDefs>
			<title>Schlüssel.82</title>
			<g id="shape83-150" v:mID="83" v:groupContext="shape" transform="translate(6.26241,0)">
				<title>Tabelle.83</title>
				<path d="M9.15 1137.45 C9.15 1134.92 7.1 1132.88 4.57 1132.88 C2.05 1132.88 0 1134.92 0 1137.45 C0 1139.44 1.27 1141.13
							 3.05 1141.76 L3.05 1153.37 L4.59 1154.55 L6.1 1153.37 L6.1 1152.15 L6.51 1152.15 L6.51 1150.18 L6.07
							 1149.84 L6.07 1149.04 L6.51 1148.93 L6.51 1147.73 L6.02 1147.19 L6.51 1146.85 L6.51 1145.84 L6.07 1145.69
							 L6.04 1144.47 L6.51 1144.34 L6.51 1143.04 L6.1 1142.8 L6.1 1141.76 C7.87 1141.13 9.15 1139.44 9.15 1137.45
							 ZM5.15 1134.34 a0.488029 0.488029 -180 1 0 -0.976059 0 a0.488029 0.488029 -180 1 0 0.976059 0 Z"
						class="st18"/>
				<path d="M9.15 1137.45 C9.15 1134.92 7.1 1132.88 4.57 1132.88 C2.05 1132.88 0 1134.92 0 1137.45 C0 1139.44 1.27 1141.13
							 3.05 1141.76 L3.05 1153.37 L4.59 1154.55 L6.1 1153.37 L6.1 1152.15 L6.51 1152.15 L6.51 1150.18 L6.07
							 1149.84 L6.07 1149.04 L6.51 1148.93 L6.51 1147.73 L6.02 1147.19 L6.51 1146.85 L6.51 1145.84 L6.07 1145.69
							 L6.04 1144.47 L6.51 1144.34 L6.51 1143.04 L6.1 1142.8 L6.1 1141.76 C7.87 1141.13 9.15 1139.44 9.15 1137.45"
						class="st4"/>
				<path d="M3.99 1141.91 L3.99 1152.94" class="st4"/>
				<path d="M5.15 1134.34 a0.488029 0.488029 -180 1 0 -0.976059 0 a0.488029 0.488029 -180 1 0 0.976059 0" class="st4"/>
			</g>
		</g>
		<g id="shape84-155" v:mID="84" v:groupContext="shape" transform="translate(151.397,-701.008)">
			<title>Benutzer.84</title>
			<v:userDefs>
				<v:ud v:nameU="msvShapeCategories" v:prompt="" v:val="VT4(Icon)"/>
				<v:ud v:nameU="visVersion" v:prompt="" v:val="VT0(15):26"/>
			</v:userDefs>
			<path d="M19.06 1139.94 A2.78332 2.82785 -180 0 0 21.84 1137.11 A2.78332 2.82785 -180 0 0 19.06 1134.29 A2.78436 2.82891
						 -180 0 0 16.28 1137.11 A2.78489 2.82944 -180 0 0 19.06 1139.94 ZM19.06 1132.88 A4.17125 4.23799 0 0 1 23.23
						 1137.11 A4.17125 4.23799 0 0 1 19.06 1141.35 A4.17108 4.23781 0 0 1 14.89 1137.11 A4.17108 4.23781 0 0 1
						 19.06 1132.88 ZM6.97 1152.92 A4.8609 4.93867 -180 0 0 12.53 1150.1 A6.11509 6.21293 -180 0 0 9.86 1144.61
						 A20456 20783.3 -180 0 0 6.97 1150.39 A10391.8 10558.1 0 0 1 4.08 1144.61 A6.11576 6.21362 -180 0 0 1.41
						 1150.1 A4.86035 4.93811 -180 0 0 6.97 1152.92 ZM9.72 1142.87 A7.32891 7.44617 0 0 1 13.92 1150.1 A5.55418
						 5.64305 0 0 1 6.97 1154.33 A5.55373 5.64259 0 0 1 0.02 1150.1 A7.33199 7.4493 0 0 1 4.22 1142.87 A4.99248
						 5.07236 -180 0 0 4.98 1143.3 L6.97 1147.27 L8.96 1143.3 A4.91617 4.99483 -180 0 0 9.72 1142.87 ZM21.8 1141.19
						 A7.32891 7.44617 0 0 1 26.01 1148.42 A5.55418 5.64305 0 0 1 19.06 1152.65 A11.0716 11.2487 0 0 1 14.41 1151.8
						 A4.2206 4.28813 -180 0 0 14.72 1150.37 A9.58332 9.73665 -180 0 0 19.06 1151.24 A4.8609 4.93867 -180 0 0
						 24.62 1148.42 A6.11363 6.21145 -180 0 0 21.95 1142.93 A13082.3 13291.6 -180 0 0 19.06 1148.71 A14560.3 14793.2
						 0 0 1 16.17 1142.93 A5.54176 5.63042 -180 0 0 13.88 1145.96 A7.8707 7.99663 -180 0 0 12.98 1144.45 A6.54167
						 6.64634 0 0 1 16.31 1141.19 A4.99248 5.07236 -180 0 0 17.07 1141.62 L19.06 1145.59 L21.05 1141.62 A4.91617
						 4.99483 -180 0 0 21.8 1141.19 ZM6.97 1141.62 A2.7828 2.82732 -180 0 0 9.75 1138.79 A2.78332 2.82785 -180
						 0 0 6.97 1135.97 A2.78436 2.82891 -180 0 0 4.19 1138.79 A2.78489 2.82944 -180 0 0 6.97 1141.62 ZM6.97 1134.56
						 A4.17125 4.23799 0 0 1 11.14 1138.79 A4.17125 4.23799 0 0 1 6.97 1143.03 A4.17108 4.23781 0 0 1 2.8 1138.79
						 A4.17108 4.23781 0 0 1 6.97 1134.56 Z" class="st19"/>
		</g>
		<g id="shape98-157" v:mID="98" v:groupContext="shape" v:layerMember="0" transform="translate(164.409,-837.8)">
			<title>Dynamischer Verbinder.98</title>
			<path d="M0 1154.55 L0 1229.71 L98.62 1229.71" class="st1"/>
		</g>
		<g id="shape99-162" v:mID="99" v:groupContext="shape" v:layerMember="0" transform="translate(279.714,-855.388)">
			<title>Dynamischer Verbinder.99</title>
			<path d="M7.09 1154.55 L7.09 1222.87" class="st1"/>
		</g>
		<g id="group101-167" transform="translate(505.296,-710.241)" v:mID="101" v:groupContext="group">
			<v:custProps>
				<v:cp v:nameU="ShapeClass" v:lbl="ShapeClass" v:prompt="" v:type="0" v:format="" v:sortKey="" v:invis="true"
						v:ask="false" v:langID="1031" v:cal="0" v:val="VT4(Sicherheit)"/>
				<v:cp v:nameU="ShapeType" v:lbl="ShapeType" v:prompt="" v:type="0" v:format="" v:sortKey="" v:invis="true"
						v:ask="false" v:langID="1031" v:cal="0" v:val="VT4(Konzeptionell)"/>
				<v:cp v:nameU="SubShapeType" v:lbl="SubShapeType" v:prompt="" v:type="0" v:format="" v:sortKey="" v:invis="true"
						v:ask="false" v:langID="1031" v:cal="0" v:val="VT4(Schloss)"/>
			</v:custProps>
			<v:userDefs>
				<v:ud v:nameU="visVersion" v:prompt="" v:val="VT0(15):26"/>
				<v:ud v:nameU="ShapeClass" v:prompt="" v:val="VT0(5):26"/>
				<v:ud v:nameU="SolSH" v:prompt="" v:val="VT15({BF0433D9-CD73-4EB5-8390-8653BE590246}):41"/>
				<v:ud v:nameU="visLegendShape" v:prompt="" v:val="VT0(2):26"/>
			</v:userDefs>
			<title>Schloss.101</title>
			<g id="shape102-168" v:mID="102" v:groupContext="shape" transform="translate(4.72021,0)">
				<title>Tabelle.102</title>
				<path d="M8.28 1130.09 L8.28 1125.16 C8.28 1123.87 8.62 1122.67 9.22 1121.66 C9.83 1120.63 10.7 1119.8 11.72 1119.27
							 C12.53 1118.84 13.43 1118.61 14.39 1118.61 C15.35 1118.61 16.24 1118.84 17.05 1119.26 C18.06 1119.78
							 18.93 1120.6 19.54 1121.62 C20.15 1122.64 20.51 1123.85 20.51 1125.16 L20.5 1130.09 L8.28 1130.09 ZM28.4
							 1130.09 L22.8 1130.09 L22.8 1125.16 C22.8 1123.43 22.32 1121.81 21.5 1120.44 C20.68 1119.07 19.5 1117.95
							 18.1 1117.23 C16.98 1116.65 15.72 1116.32 14.39 1116.32 C13.06 1116.32 11.79 1116.65 10.67 1117.24 C9.25
							 1117.97 8.07 1119.11 7.25 1120.5 C6.45 1121.86 5.99 1123.46 5.99 1125.16 L5.99 1130.09 L0.39 1130.09
							 C0.17 1130.09 0 1130.26 0 1130.48 L0 1154.16 C0 1154.38 0.17 1154.55 0.39 1154.55 L28.4 1154.55 C28.61
							 1154.55 28.79 1154.38 28.79 1154.16 L28.79 1130.48 C28.79 1130.26 28.61 1130.09 28.4 1130.09 Z"
						class="st3"/>
			</g>
			<g id="shape103-170" v:mID="103" v:groupContext="shape" transform="translate(11.3424,-12.2518)">
				<title>Tabelle.103</title>
				<path d="M0 1150.13 L15.48 1150.13" class="st4"/>
				<path d="M0 1154.55 L15.48 1154.55" class="st4"/>
			</g>
		</g>
		<g id="group104-174" transform="translate(-619.304,444.311) rotate(-90)" v:mID="104" v:groupContext="group">
			<v:custProps>
				<v:cp v:nameU="ShapeClass" v:lbl="ShapeClass" v:prompt="" v:type="0" v:format="" v:sortKey="" v:invis="true"
						v:ask="false" v:langID="1031" v:cal="0" v:val="VT4(Sicherheit)"/>
				<v:cp v:nameU="ShapeType" v:lbl="ShapeType" v:prompt="" v:type="0" v:format="" v:sortKey="" v:invis="true"
						v:ask="false" v:langID="1031" v:cal="0" v:val="VT4(Konzeptionell)"/>
				<v:cp v:nameU="SubShapeType" v:lbl="SubShapeType" v:prompt="" v:type="0" v:format="" v:sortKey="" v:invis="true"
						v:ask="false" v:langID="1031" v:cal="0" v:val="VT4(Schlüssel)"/>
			</v:custProps>
			<v:userDefs>
				<v:ud v:nameU="visVersion" v:prompt="" v:val="VT0(15):26"/>
				<v:ud v:nameU="ShapeClass" v:prompt="" v:val="VT0(5):26"/>
				<v:ud v:nameU="SolSH" v:prompt="" v:val="VT15({BF0433D9-CD73-4EB5-8390-8653BE590246}):41"/>
				<v:ud v:nameU="visLegendShape" v:prompt="" v:val="VT0(2):26"/>
			</v:userDefs>
			<title>Schlüssel.104</title>
			<g id="shape105-175" v:mID="105" v:groupContext="shape" transform="translate(6.26241,0)">
				<title>Tabelle.105</title>
				<path d="M9.15 1137.45 C9.15 1134.92 7.1 1132.88 4.57 1132.88 C2.05 1132.88 0 1134.92 0 1137.45 C0 1139.44 1.27 1141.13
							 3.05 1141.76 L3.05 1153.37 L4.59 1154.55 L6.1 1153.37 L6.1 1152.15 L6.51 1152.15 L6.51 1150.18 L6.07
							 1149.84 L6.07 1149.04 L6.51 1148.93 L6.51 1147.73 L6.02 1147.19 L6.51 1146.85 L6.51 1145.84 L6.07 1145.69
							 L6.04 1144.47 L6.51 1144.34 L6.51 1143.04 L6.1 1142.8 L6.1 1141.76 C7.87 1141.13 9.15 1139.44 9.15 1137.45
							 ZM5.15 1134.34 a0.488029 0.488029 -180 1 0 -0.976059 0 a0.488029 0.488029 -180 1 0 0.976059 0 Z"
						class="st18"/>
				<path d="M9.15 1137.45 C9.15 1134.92 7.1 1132.88 4.57 1132.88 C2.05 1132.88 0 1134.92 0 1137.45 C0 1139.44 1.27 1141.13
							 3.05 1141.76 L3.05 1153.37 L4.59 1154.55 L6.1 1153.37 L6.1 1152.15 L6.51 1152.15 L6.51 1150.18 L6.07
							 1149.84 L6.07 1149.04 L6.51 1148.93 L6.51 1147.73 L6.02 1147.19 L6.51 1146.85 L6.51 1145.84 L6.07 1145.69
							 L6.04 1144.47 L6.51 1144.34 L6.51 1143.04 L6.1 1142.8 L6.1 1141.76 C7.87 1141.13 9.15 1139.44 9.15 1137.45"
						class="st4"/>
				<path d="M3.99 1141.91 L3.99 1152.94" class="st4"/>
				<path d="M5.15 1134.34 a0.488029 0.488029 -180 1 0 -0.976059 0 a0.488029 0.488029 -180 1 0 0.976059 0" class="st4"/>
			</g>
		</g>
		<g id="shape108-180" v:mID="108" v:groupContext="shape" transform="translate(429.489,-866.146)">
			<title>Kreis</title>
			<desc>1</desc>
			<v:userDefs>
				<v:ud v:nameU="visVersion" v:val="VT0(15):26"/>
			</v:userDefs>
			<v:textBlock v:margins="rect(4,4,4,4)" v:tabSpace="42.5197"/>
			<v:textRect cx="19.1137" cy="1135.44" width="38.23" height="38.2274"/>
			<path d="M0 1135.44 A19.1137 19.1137 0 0 1 38.23 1135.44 A19.1137 19.1137 0 1 1 0 1135.44 Z" class="st20"/>
			<text x="14.55" y="1140.84" class="st21" v:langID="2055"><v:paragraph v:horizAlign="1"/><v:tabList/>1</text>		</g>
		<g id="shape110-183" v:mID="110" v:groupContext="shape" transform="translate(216.891,-861.206)">
			<title>Kreis.110</title>
			<desc>2</desc>
			<v:userDefs>
				<v:ud v:nameU="visVersion" v:val="VT0(15):26"/>
			</v:userDefs>
			<v:textBlock v:margins="rect(4,4,4,4)" v:tabSpace="42.5197"/>
			<v:textRect cx="19.1137" cy="1135.44" width="38.23" height="38.2274"/>
			<path d="M0 1135.44 A19.1137 19.1137 0 0 1 38.23 1135.44 A19.1137 19.1137 0 1 1 0 1135.44 Z" class="st20"/>
			<text x="14.55" y="1140.84" class="st21" v:langID="2055"><v:paragraph v:horizAlign="1"/><v:tabList/>2</text>		</g>
		<g id="shape111-186" v:mID="111" v:groupContext="shape" transform="translate(443.662,-761.993)">
			<title>Kreis.111</title>
			<desc>4</desc>
			<v:userDefs>
				<v:ud v:nameU="visVersion" v:val="VT0(15):26"/>
			</v:userDefs>
			<v:textBlock v:margins="rect(4,4,4,4)" v:tabSpace="42.5197"/>
			<v:textRect cx="19.1137" cy="1135.44" width="38.23" height="38.2274"/>
			<path d="M0 1135.44 A19.1137 19.1137 0 0 1 38.23 1135.44 A19.1137 19.1137 0 1 1 0 1135.44 Z" class="st20"/>
			<text x="14.55" y="1140.84" class="st21" v:langID="2055"><v:paragraph v:horizAlign="1"/><v:tabList/>4</text>		</g>
		<g id="shape112-189" v:mID="112" v:groupContext="shape" transform="translate(240.945,-771.874)">
			<title>Kreis.112</title>
			<desc>3</desc>
			<v:userDefs>
				<v:ud v:nameU="visVersion" v:val="VT0(15):26"/>
			</v:userDefs>
			<v:textBlock v:margins="rect(4,4,4,4)" v:tabSpace="42.5197"/>
			<v:textRect cx="19.1137" cy="1135.44" width="38.23" height="38.2274"/>
			<path d="M0 1135.44 A19.1137 19.1137 0 0 1 38.23 1135.44 A19.1137 19.1137 0 1 1 0 1135.44 Z" class="st20"/>
			<text x="14.55" y="1140.84" class="st21" v:langID="2055"><v:paragraph v:horizAlign="1"/><v:tabList/>3</text>		</g>
		<g id="group113-192" transform="translate(-979.304,478.554) rotate(-90)" v:mID="113" v:groupContext="group">
			<v:custProps>
				<v:cp v:nameU="ShapeClass" v:lbl="ShapeClass" v:prompt="" v:type="0" v:format="" v:sortKey="" v:invis="true"
						v:ask="false" v:langID="1031" v:cal="0" v:val="VT4(Sicherheit)"/>
				<v:cp v:nameU="ShapeType" v:lbl="ShapeType" v:prompt="" v:type="0" v:format="" v:sortKey="" v:invis="true"
						v:ask="false" v:langID="1031" v:cal="0" v:val="VT4(Konzeptionell)"/>
				<v:cp v:nameU="SubShapeType" v:lbl="SubShapeType" v:prompt="" v:type="0" v:format="" v:sortKey="" v:invis="true"
						v:ask="false" v:langID="1031" v:cal="0" v:val="VT4(Schlüssel)"/>
			</v:custProps>
			<v:userDefs>
				<v:ud v:nameU="visVersion" v:prompt="" v:val="VT0(15):26"/>
				<v:ud v:nameU="ShapeClass" v:prompt="" v:val="VT0(5):26"/>
				<v:ud v:nameU="SolSH" v:prompt="" v:val="VT15({BF0433D9-CD73-4EB5-8390-8653BE590246}):41"/>
				<v:ud v:nameU="visLegendShape" v:prompt="" v:val="VT0(2):26"/>
			</v:userDefs>
			<title>Schlüssel.113</title>
			<g id="shape114-193" v:mID="114" v:groupContext="shape" transform="translate(6.26241,0)">
				<title>Tabelle.114</title>
				<path d="M9.15 1137.45 C9.15 1134.92 7.1 1132.88 4.57 1132.88 C2.05 1132.88 0 1134.92 0 1137.45 C0 1139.44 1.27 1141.13
							 3.05 1141.76 L3.05 1153.37 L4.59 1154.55 L6.1 1153.37 L6.1 1152.15 L6.51 1152.15 L6.51 1150.18 L6.07
							 1149.84 L6.07 1149.04 L6.51 1148.93 L6.51 1147.73 L6.02 1147.19 L6.51 1146.85 L6.51 1145.84 L6.07 1145.69
							 L6.04 1144.47 L6.51 1144.34 L6.51 1143.04 L6.1 1142.8 L6.1 1141.76 C7.87 1141.13 9.15 1139.44 9.15 1137.45
							 ZM5.15 1134.34 a0.488029 0.488029 -180 1 0 -0.976059 0 a0.488029 0.488029 -180 1 0 0.976059 0 Z"
						class="st22"/>
				<path d="M9.15 1137.45 C9.15 1134.92 7.1 1132.88 4.57 1132.88 C2.05 1132.88 0 1134.92 0 1137.45 C0 1139.44 1.27 1141.13
							 3.05 1141.76 L3.05 1153.37 L4.59 1154.55 L6.1 1153.37 L6.1 1152.15 L6.51 1152.15 L6.51 1150.18 L6.07
							 1149.84 L6.07 1149.04 L6.51 1148.93 L6.51 1147.73 L6.02 1147.19 L6.51 1146.85 L6.51 1145.84 L6.07 1145.69
							 L6.04 1144.47 L6.51 1144.34 L6.51 1143.04 L6.1 1142.8 L6.1 1141.76 C7.87 1141.13 9.15 1139.44 9.15 1137.45"
						class="st4"/>
				<path d="M3.99 1141.91 L3.99 1152.94" class="st4"/>
				<path d="M5.15 1134.34 a0.488029 0.488029 -180 1 0 -0.976059 0 a0.488029 0.488029 -180 1 0 0.976059 0" class="st4"/>
			</g>
		</g>
		<g id="shape116-198" v:mID="116" v:groupContext="shape" transform="translate(420.017,-593.291)">
			<title>Feld.116</title>
			<desc>1. Download encrypted Privatekey 2. Decrypt with own key 3. R...</desc>
			<v:userDefs>
				<v:ud v:nameU="visVersion" v:val="VT0(15):26"/>
			</v:userDefs>
			<v:textBlock v:margins="rect(4,4,4,4)" v:tabSpace="42.5197"/>
			<v:textRect cx="193.928" cy="1113.2" width="387.86" height="82.706"/>
			<rect x="0" y="1071.85" width="387.857" height="82.706" class="st20"/>
			<text x="96.11" y="1092.2" class="st23" v:langID="2055"><v:paragraph v:horizAlign="1"/><v:tabList/>1. Download encrypted Privatekey<v:newlineChar/><tspan
						x="125.06" dy="1.2em" class="st24">2</tspan>. Decrypt with own key<v:newlineChar/><tspan x="88.34"
						dy="1.2em" class="st24">3</tspan>. Re-encrypt with friend’s public key<v:newlineChar/><tspan x="97.68"
						dy="1.2em" class="st24">4</tspan>. Upload encrypted key to server</text>		</g>
		<g id="shape119-204" v:mID="119" v:groupContext="shape" transform="translate(269.291,-1107.36)">
			<title>Feld.119</title>
			<desc>CLIENT</desc>
			<v:userDefs>
				<v:ud v:nameU="visVersion" v:val="VT0(15):26"/>
			</v:userDefs>
			<v:textBlock v:margins="rect(4,4,4,4)" v:tabSpace="42.5197"/>
			<v:textRect cx="64.4998" cy="1143.71" width="129" height="21.6745"/>
			<rect x="0" y="1132.88" width="129" height="21.6745" class="st20"/>
			<text x="39.06" y="1149.11" class="st21" v:langID="2055"><v:paragraph v:horizAlign="1"/><v:tabList/>CLIENT</text>		</g>
		<g id="shape120-207" v:mID="120" v:groupContext="shape" transform="translate(412.418,-1107.36)">
			<title>Feld.120</title>
			<desc>SERVER</desc>
			<v:userDefs>
				<v:ud v:nameU="visVersion" v:val="VT0(15):26"/>
			</v:userDefs>
			<v:textBlock v:margins="rect(4,4,4,4)" v:tabSpace="42.5197"/>
			<v:textRect cx="64.4998" cy="1143.71" width="129" height="21.6745"/>
			<rect x="0" y="1132.88" width="129" height="21.6745" class="st20"/>
			<text x="36.7" y="1149.11" class="st21" v:langID="2055"><v:paragraph v:horizAlign="1"/><v:tabList/>SERVER</text>		</g>
	</g>
</svg>
