<?xml version="1.0" encoding="UTF-8" standalone="no"?>
<!DOCTYPE svg PUBLIC "-//W3C//DTD SVG 1.1//EN" "http://www.w3.org/Graphics/SVG/1.1/DTD/svg11.dtd">
<!-- Generiert durch Microsoft Visio, SVG Export keystore.svg Page-1 -->
<svg xmlns="http://www.w3.org/2000/svg" xmlns:xlink="http://www.w3.org/1999/xlink" xmlns:ev="http://www.w3.org/2001/xml-events"
		xmlns:v="http://schemas.microsoft.com/visio/2003/SVGExtensions/" width="11.6929in" height="8.26772in"
		viewBox="0 0 841.89 595.276" xml:space="preserve" color-interpolation-filters="sRGB" class="st14">
	<v:documentProperties v:langID="1031" v:metric="true" v:viewMarkup="false">
		<v:userDefs>
			<v:ud v:nameU="msvSubprocessMaster" v:prompt="" v:val="VT4(Box)"/>
			<v:ud v:nameU="msvNoAutoConnect" v:val="VT0(1):26"/>
		</v:userDefs>
	</v:documentProperties>

	<style type="text/css">
	<![CDATA[
		.st1 {fill:none;stroke:#fd9759;stroke-linecap:round;stroke-linejoin:round;stroke-width:2}
		.st2 {fill:#ffc000;stroke:#ffffff;stroke-linecap:round;stroke-linejoin:round;stroke-width:0.5}
		.st3 {stroke:#ffffff;stroke-linecap:round;stroke-linejoin:round;stroke-width:0.5}
		.st4 {fill:#92d050;stroke:#ffffff;stroke-linecap:round;stroke-linejoin:round;stroke-width:0.5}
		.st5 {fill:#0070c0}
		.st6 {fill:#0070c0;stroke:#ffffff;stroke-linecap:round;stroke-linejoin:round;stroke-width:0.5}
		.st7 {fill:#ff0000;font-family:Calibri;font-size:0.833336em}
		.st8 {fill:#92d050}
		.st9 {fill:#ffc000}
		.st10 {fill:#ffc000;stroke:none;stroke-linecap:butt;stroke-width:0.75}
		.st11 {fill:#92d050;stroke:none;stroke-linecap:butt;stroke-width:0.75}
		.st12 {fill:#ffff00;stroke:#ffffff;stroke-linecap:round;stroke-linejoin:round;stroke-width:0.5}
		.st13 {fill:#ffff00}
		.st14 {fill:none;fill-rule:evenodd;font-size:12px;overflow:visible;stroke-linecap:square;stroke-miterlimit:3}
	]]>
	</style>

	<g v:mID="0" v:index="1" v:groupContext="foregroundPage">
		<v:userDefs>
			<v:ud v:nameU="msvThemeOrder" v:val="VT0(0):26"/>
		</v:userDefs>
		<title>Zeichenblatt-1</title>
		<v:pageProperties v:drawingScale="0.0393701" v:pageScale="0.0393701" v:drawingUnits="24" v:shadowOffsetX="8.50394"
				v:shadowOffsetY="-8.50394"/>
		<g id="shape49-1" v:mID="49" v:groupContext="shape" transform="translate(17.4975,-18)">
			<title>Feld</title>
			<v:userDefs>
				<v:ud v:nameU="visVersion" v:val="VT0(15):26"/>
			</v:userDefs>
			<rect x="0" y="36" width="387.857" height="559.276" class="st1"/>
		</g>
		<g id="group15-3" transform="translate(503.15,-437.538)" v:mID="15" v:groupContext="group">
			<v:custProps>
				<v:cp v:nameU="ShapeClass" v:lbl="ShapeClass" v:prompt="" v:type="0" v:format="" v:sortKey="" v:invis="true"
						v:ask="false" v:langID="1031" v:cal="0" v:val="VT4(Sicherheit)"/>
				<v:cp v:nameU="ShapeType" v:lbl="ShapeType" v:prompt="" v:type="0" v:format="" v:sortKey="" v:invis="true"
						v:ask="false" v:langID="1031" v:cal="0" v:val="VT4(Konzeptionell)"/>
				<v:cp v:nameU="SubShapeType" v:lbl="SubShapeType" v:prompt="" v:type="0" v:format="" v:sortKey="" v:invis="true"
						v:ask="false" v:langID="1031" v:cal="0" v:val="VT4(Schloss)"/>
			</v:custProps>
			<v:userDefs>
				<v:ud v:nameU="visVersion" v:prompt="" v:val="VT0(15):26"/>
				<v:ud v:nameU="ShapeClass" v:prompt="" v:val="VT0(5):26"/>
				<v:ud v:nameU="SolSH" v:prompt="" v:val="VT15({BF0433D9-CD73-4EB5-8390-8653BE590246}):41"/>
				<v:ud v:nameU="visLegendShape" v:prompt="" v:val="VT0(2):26"/>
			</v:userDefs>
			<title>Schloss.15</title>
			<g id="shape16-4" v:mID="16" v:groupContext="shape" transform="translate(4.72021,0)">
				<title>Tabelle.16</title>
				<path d="M8.28 570.81 L8.28 565.88 C8.28 564.59 8.62 563.4 9.22 562.39 C9.83 561.36 10.7 560.52 11.72 559.99 C12.53
							 559.57 13.43 559.34 14.39 559.34 C15.35 559.34 16.24 559.57 17.05 559.98 C18.06 560.51 18.93 561.33
							 19.54 562.34 C20.15 563.36 20.51 564.57 20.51 565.88 L20.5 570.81 L8.28 570.81 ZM28.4 570.81 L22.8 570.81
							 L22.8 565.88 C22.8 564.15 22.32 562.53 21.5 561.16 C20.68 559.8 19.5 558.68 18.1 557.95 C16.98 557.38
							 15.72 557.05 14.39 557.05 C13.06 557.05 11.79 557.38 10.67 557.96 C9.25 558.7 8.07 559.83 7.25 561.22
							 C6.45 562.58 5.99 564.18 5.99 565.88 L5.99 570.81 L0.39 570.81 C0.17 570.81 0 570.99 0 571.2 L0 594.89
							 C0 595.1 0.17 595.28 0.39 595.28 L28.4 595.28 C28.61 595.28 28.79 595.1 28.79 594.89 L28.79 571.2 C28.79
							 570.99 28.61 570.81 28.4 570.81 Z" class="st2"/>
			</g>
			<g id="shape17-6" v:mID="17" v:groupContext="shape" transform="translate(11.3424,-12.2518)">
				<title>Tabelle.17</title>
				<path d="M0 590.85 L15.48 590.85" class="st3"/>
				<path d="M0 595.28 L15.48 595.28" class="st3"/>
			</g>
		</g>
		<g id="group5-10" transform="translate(503.15,-506.445)" v:mID="5" v:groupContext="group">
			<v:custProps>
				<v:cp v:nameU="ShapeClass" v:lbl="ShapeClass" v:prompt="" v:type="0" v:format="" v:sortKey="" v:invis="true"
						v:ask="false" v:langID="1031" v:cal="0" v:val="VT4(Sicherheit)"/>
				<v:cp v:nameU="ShapeType" v:lbl="ShapeType" v:prompt="" v:type="0" v:format="" v:sortKey="" v:invis="true"
						v:ask="false" v:langID="1031" v:cal="0" v:val="VT4(Konzeptionell)"/>
				<v:cp v:nameU="SubShapeType" v:lbl="SubShapeType" v:prompt="" v:type="0" v:format="" v:sortKey="" v:invis="true"
						v:ask="false" v:langID="1031" v:cal="0" v:val="VT4(Schloss)"/>
			</v:custProps>
			<v:userDefs>
				<v:ud v:nameU="visVersion" v:prompt="" v:val="VT0(15):26"/>
				<v:ud v:nameU="ShapeClass" v:prompt="" v:val="VT0(5):26"/>
				<v:ud v:nameU="SolSH" v:prompt="" v:val="VT15({BF0433D9-CD73-4EB5-8390-8653BE590246}):41"/>
				<v:ud v:nameU="visLegendShape" v:prompt="" v:val="VT0(2):26"/>
			</v:userDefs>
			<title>Schloss</title>
			<g id="shape6-11" v:mID="6" v:groupContext="shape" transform="translate(4.72021,0)">
				<title>Tabelle.6</title>
				<path d="M8.28 570.81 L8.28 565.88 C8.28 564.59 8.62 563.4 9.22 562.39 C9.83 561.36 10.7 560.52 11.72 559.99 C12.53
							 559.57 13.43 559.34 14.39 559.34 C15.35 559.34 16.24 559.57 17.05 559.98 C18.06 560.51 18.93 561.33
							 19.54 562.34 C20.15 563.36 20.51 564.57 20.51 565.88 L20.5 570.81 L8.28 570.81 ZM28.4 570.81 L22.8 570.81
							 L22.8 565.88 C22.8 564.15 22.32 562.53 21.5 561.16 C20.68 559.8 19.5 558.68 18.1 557.95 C16.98 557.38
							 15.72 557.05 14.39 557.05 C13.06 557.05 11.79 557.38 10.67 557.96 C9.25 558.7 8.07 559.83 7.25 561.22
							 C6.45 562.58 5.99 564.18 5.99 565.88 L5.99 570.81 L0.39 570.81 C0.17 570.81 0 570.99 0 571.2 L0 594.89
							 C0 595.1 0.17 595.28 0.39 595.28 L28.4 595.28 C28.61 595.28 28.79 595.1 28.79 594.89 L28.79 571.2 C28.79
							 570.99 28.61 570.81 28.4 570.81 Z" class="st4"/>
			</g>
			<g id="shape7-13" v:mID="7" v:groupContext="shape" transform="translate(11.3424,-12.2518)">
				<title>Tabelle.7</title>
				<path d="M0 590.85 L15.48 590.85" class="st3"/>
				<path d="M0 595.28 L15.48 595.28" class="st3"/>
			</g>
		</g>
		<g id="group2-17" transform="translate(-62.175,88.8303) rotate(-90)" v:mID="2" v:groupContext="group">
			<v:custProps>
				<v:cp v:nameU="ShapeClass" v:lbl="ShapeClass" v:prompt="" v:type="0" v:format="" v:sortKey="" v:invis="true"
						v:ask="false" v:langID="1031" v:cal="0" v:val="VT4(Sicherheit)"/>
				<v:cp v:nameU="ShapeType" v:lbl="ShapeType" v:prompt="" v:type="0" v:format="" v:sortKey="" v:invis="true"
						v:ask="false" v:langID="1031" v:cal="0" v:val="VT4(Konzeptionell)"/>
				<v:cp v:nameU="SubShapeType" v:lbl="SubShapeType" v:prompt="" v:type="0" v:format="" v:sortKey="" v:invis="true"
						v:ask="false" v:langID="1031" v:cal="0" v:val="VT4(Schlüssel)"/>
			</v:custProps>
			<v:userDefs>
				<v:ud v:nameU="visVersion" v:prompt="" v:val="VT0(15):26"/>
				<v:ud v:nameU="ShapeClass" v:prompt="" v:val="VT0(5):26"/>
				<v:ud v:nameU="SolSH" v:prompt="" v:val="VT15({BF0433D9-CD73-4EB5-8390-8653BE590246}):41"/>
				<v:ud v:nameU="visLegendShape" v:prompt="" v:val="VT0(2):26"/>
			</v:userDefs>
			<title>Schlüssel</title>
			<g id="shape3-18" v:mID="3" v:groupContext="shape" transform="translate(6.26241,0)">
				<title>Tabelle.3</title>
				<path d="M9.15 578.18 C9.15 575.65 7.1 573.6 4.57 573.6 C2.05 573.6 0 575.65 0 578.18 C0 580.17 1.27 581.86 3.05
							 582.48 L3.05 594.1 L4.59 595.28 L6.1 594.1 L6.1 592.88 L6.51 592.88 L6.51 590.9 L6.07 590.56 L6.07 589.76
							 L6.51 589.66 L6.51 588.46 L6.02 587.92 L6.51 587.57 L6.51 586.56 L6.07 586.41 L6.04 585.19 L6.51 585.07
							 L6.51 583.77 L6.1 583.52 L6.1 582.48 C7.87 581.86 9.15 580.17 9.15 578.18 ZM5.15 575.07 a0.488029 0.488029
							 -180 1 0 -0.976059 0 a0.488029 0.488029 -180 1 0 0.976059 0 Z" class="st5"/>
				<path d="M9.15 578.18 C9.15 575.65 7.1 573.6 4.57 573.6 C2.05 573.6 0 575.65 0 578.18 C0 580.17 1.27 581.86 3.05
							 582.48 L3.05 594.1 L4.59 595.28 L6.1 594.1 L6.1 592.88 L6.51 592.88 L6.51 590.9 L6.07 590.56 L6.07 589.76
							 L6.51 589.66 L6.51 588.46 L6.02 587.92 L6.51 587.57 L6.51 586.56 L6.07 586.41 L6.04 585.19 L6.51 585.07
							 L6.51 583.77 L6.1 583.52 L6.1 582.48 C7.87 581.86 9.15 580.17 9.15 578.18" class="st3"/>
				<path d="M3.99 582.64 L3.99 593.67" class="st3"/>
				<path d="M5.15 575.07 a0.488029 0.488029 -180 1 0 -0.976059 0 a0.488029 0.488029 -180 1 0 0.976059 0" class="st3"/>
			</g>
		</g>
		<g id="group8-23" transform="translate(625.768,-506.445)" v:mID="8" v:groupContext="group">
			<v:custProps>
				<v:cp v:nameU="ShapeClass" v:lbl="ShapeClass" v:prompt="" v:type="0" v:format="" v:sortKey="" v:invis="true"
						v:ask="false" v:langID="1031" v:cal="0" v:val="VT4(Sicherheit)"/>
				<v:cp v:nameU="ShapeType" v:lbl="ShapeType" v:prompt="" v:type="0" v:format="" v:sortKey="" v:invis="true"
						v:ask="false" v:langID="1031" v:cal="0" v:val="VT4(Konzeptionell)"/>
				<v:cp v:nameU="SubShapeType" v:lbl="SubShapeType" v:prompt="" v:type="0" v:format="" v:sortKey="" v:invis="true"
						v:ask="false" v:langID="1031" v:cal="0" v:val="VT4(Schloss)"/>
			</v:custProps>
			<v:userDefs>
				<v:ud v:nameU="visVersion" v:prompt="" v:val="VT0(15):26"/>
				<v:ud v:nameU="ShapeClass" v:prompt="" v:val="VT0(5):26"/>
				<v:ud v:nameU="SolSH" v:prompt="" v:val="VT15({BF0433D9-CD73-4EB5-8390-8653BE590246}):41"/>
				<v:ud v:nameU="visLegendShape" v:prompt="" v:val="VT0(2):26"/>
			</v:userDefs>
			<title>Schloss.8</title>
			<desc>PW1</desc>
			<g id="shape9-24" v:mID="9" v:groupContext="shape" transform="translate(4.72021,0)">
				<title>Tabelle.9</title>
				<path d="M8.28 570.81 L8.28 565.88 C8.28 564.59 8.62 563.4 9.22 562.39 C9.83 561.36 10.7 560.52 11.72 559.99 C12.53
							 559.57 13.43 559.34 14.39 559.34 C15.35 559.34 16.24 559.57 17.05 559.98 C18.06 560.51 18.93 561.33
							 19.54 562.34 C20.15 563.36 20.51 564.57 20.51 565.88 L20.5 570.81 L8.28 570.81 ZM28.4 570.81 L22.8 570.81
							 L22.8 565.88 C22.8 564.15 22.32 562.53 21.5 561.16 C20.68 559.8 19.5 558.68 18.1 557.95 C16.98 557.38
							 15.72 557.05 14.39 557.05 C13.06 557.05 11.79 557.38 10.67 557.96 C9.25 558.7 8.07 559.83 7.25 561.22
							 C6.45 562.58 5.99 564.18 5.99 565.88 L5.99 570.81 L0.39 570.81 C0.17 570.81 0 570.99 0 571.2 L0 594.89
							 C0 595.1 0.17 595.28 0.39 595.28 L28.4 595.28 C28.61 595.28 28.79 595.1 28.79 594.89 L28.79 571.2 C28.79
							 570.99 28.61 570.81 28.4 570.81 Z" class="st6"/>
			</g>
			<g id="shape10-26" v:mID="10" v:groupContext="shape" transform="translate(11.3424,-12.2518)">
				<title>Tabelle.10</title>
				<path d="M0 590.85 L15.48 590.85" class="st3"/>
				<path d="M0 595.28 L15.48 595.28" class="st3"/>
			</g>
			<g id="shape8-30" v:mID="8" v:groupContext="groupContent">
				<v:textBlock v:margins="rect(4,4,4,4)" v:tabSpace="42.5197"/>
				<v:textRect cx="19.1137" cy="605.277" width="29.4" height="20.0036"/>
				<text x="9.55" y="608.28" class="st7" v:langID="2055"><v:paragraph v:horizAlign="1"/><v:tabList/>PW1</text>			</g>
		</g>
		<g id="group11-32" transform="translate(-374.173,88.8303) rotate(-90)" v:mID="11" v:groupContext="group">
			<v:custProps>
				<v:cp v:nameU="ShapeClass" v:lbl="ShapeClass" v:prompt="" v:type="0" v:format="" v:sortKey="" v:invis="true"
						v:ask="false" v:langID="1031" v:cal="0" v:val="VT4(Sicherheit)"/>
				<v:cp v:nameU="ShapeType" v:lbl="ShapeType" v:prompt="" v:type="0" v:format="" v:sortKey="" v:invis="true"
						v:ask="false" v:langID="1031" v:cal="0" v:val="VT4(Konzeptionell)"/>
				<v:cp v:nameU="SubShapeType" v:lbl="SubShapeType" v:prompt="" v:type="0" v:format="" v:sortKey="" v:invis="true"
						v:ask="false" v:langID="1031" v:cal="0" v:val="VT4(Schlüssel)"/>
			</v:custProps>
			<v:userDefs>
				<v:ud v:nameU="visVersion" v:prompt="" v:val="VT0(15):26"/>
				<v:ud v:nameU="ShapeClass" v:prompt="" v:val="VT0(5):26"/>
				<v:ud v:nameU="SolSH" v:prompt="" v:val="VT15({BF0433D9-CD73-4EB5-8390-8653BE590246}):41"/>
				<v:ud v:nameU="visLegendShape" v:prompt="" v:val="VT0(2):26"/>
			</v:userDefs>
			<title>Schlüssel.11</title>
			<g id="shape12-33" v:mID="12" v:groupContext="shape" transform="translate(6.26241,0)">
				<title>Tabelle.12</title>
				<path d="M9.15 578.18 C9.15 575.65 7.1 573.6 4.57 573.6 C2.05 573.6 0 575.65 0 578.18 C0 580.17 1.27 581.86 3.05
							 582.48 L3.05 594.1 L4.59 595.28 L6.1 594.1 L6.1 592.88 L6.51 592.88 L6.51 590.9 L6.07 590.56 L6.07 589.76
							 L6.51 589.66 L6.51 588.46 L6.02 587.92 L6.51 587.57 L6.51 586.56 L6.07 586.41 L6.04 585.19 L6.51 585.07
							 L6.51 583.77 L6.1 583.52 L6.1 582.48 C7.87 581.86 9.15 580.17 9.15 578.18 ZM5.15 575.07 a0.488029 0.488029
							 -180 1 0 -0.976059 0 a0.488029 0.488029 -180 1 0 0.976059 0 Z" class="st8"/>
				<path d="M9.15 578.18 C9.15 575.65 7.1 573.6 4.57 573.6 C2.05 573.6 0 575.65 0 578.18 C0 580.17 1.27 581.86 3.05
							 582.48 L3.05 594.1 L4.59 595.28 L6.1 594.1 L6.1 592.88 L6.51 592.88 L6.51 590.9 L6.07 590.56 L6.07 589.76
							 L6.51 589.66 L6.51 588.46 L6.02 587.92 L6.51 587.57 L6.51 586.56 L6.07 586.41 L6.04 585.19 L6.51 585.07
							 L6.51 583.77 L6.1 583.52 L6.1 582.48 C7.87 581.86 9.15 580.17 9.15 578.18" class="st3"/>
				<path d="M3.99 582.64 L3.99 593.67" class="st3"/>
				<path d="M5.15 575.07 a0.488029 0.488029 -180 1 0 -0.976059 0 a0.488029 0.488029 -180 1 0 0.976059 0" class="st3"/>
			</g>
		</g>
		<g id="group13-38" transform="translate(-62.175,157.738) rotate(-90)" v:mID="13" v:groupContext="group">
			<v:custProps>
				<v:cp v:nameU="ShapeClass" v:lbl="ShapeClass" v:prompt="" v:type="0" v:format="" v:sortKey="" v:invis="true"
						v:ask="false" v:langID="1031" v:cal="0" v:val="VT4(Sicherheit)"/>
				<v:cp v:nameU="ShapeType" v:lbl="ShapeType" v:prompt="" v:type="0" v:format="" v:sortKey="" v:invis="true"
						v:ask="false" v:langID="1031" v:cal="0" v:val="VT4(Konzeptionell)"/>
				<v:cp v:nameU="SubShapeType" v:lbl="SubShapeType" v:prompt="" v:type="0" v:format="" v:sortKey="" v:invis="true"
						v:ask="false" v:langID="1031" v:cal="0" v:val="VT4(Schlüssel)"/>
			</v:custProps>
			<v:userDefs>
				<v:ud v:nameU="visVersion" v:prompt="" v:val="VT0(15):26"/>
				<v:ud v:nameU="ShapeClass" v:prompt="" v:val="VT0(5):26"/>
				<v:ud v:nameU="SolSH" v:prompt="" v:val="VT15({BF0433D9-CD73-4EB5-8390-8653BE590246}):41"/>
				<v:ud v:nameU="visLegendShape" v:prompt="" v:val="VT0(2):26"/>
			</v:userDefs>
			<title>Schlüssel.13</title>
			<g id="shape14-39" v:mID="14" v:groupContext="shape" transform="translate(6.26241,0)">
				<title>Tabelle.14</title>
				<path d="M9.15 578.18 C9.15 575.65 7.1 573.6 4.57 573.6 C2.05 573.6 0 575.65 0 578.18 C0 580.17 1.27 581.86 3.05
							 582.48 L3.05 594.1 L4.59 595.28 L6.1 594.1 L6.1 592.88 L6.51 592.88 L6.51 590.9 L6.07 590.56 L6.07 589.76
							 L6.51 589.66 L6.51 588.46 L6.02 587.92 L6.51 587.57 L6.51 586.56 L6.07 586.41 L6.04 585.19 L6.51 585.07
							 L6.51 583.77 L6.1 583.52 L6.1 582.48 C7.87 581.86 9.15 580.17 9.15 578.18 ZM5.15 575.07 a0.488029 0.488029
							 -180 1 0 -0.976059 0 a0.488029 0.488029 -180 1 0 0.976059 0 Z" class="st5"/>
				<path d="M9.15 578.18 C9.15 575.65 7.1 573.6 4.57 573.6 C2.05 573.6 0 575.65 0 578.18 C0 580.17 1.27 581.86 3.05
							 582.48 L3.05 594.1 L4.59 595.28 L6.1 594.1 L6.1 592.88 L6.51 592.88 L6.51 590.9 L6.07 590.56 L6.07 589.76
							 L6.51 589.66 L6.51 588.46 L6.02 587.92 L6.51 587.57 L6.51 586.56 L6.07 586.41 L6.04 585.19 L6.51 585.07
							 L6.51 583.77 L6.1 583.52 L6.1 582.48 C7.87 581.86 9.15 580.17 9.15 578.18" class="st3"/>
				<path d="M3.99 582.64 L3.99 593.67" class="st3"/>
				<path d="M5.15 575.07 a0.488029 0.488029 -180 1 0 -0.976059 0 a0.488029 0.488029 -180 1 0 0.976059 0" class="st3"/>
			</g>
		</g>
		<g id="group18-44" transform="translate(-374.173,157.738) rotate(-90)" v:mID="18" v:groupContext="group">
			<v:custProps>
				<v:cp v:nameU="ShapeClass" v:lbl="ShapeClass" v:prompt="" v:type="0" v:format="" v:sortKey="" v:invis="true"
						v:ask="false" v:langID="1031" v:cal="0" v:val="VT4(Sicherheit)"/>
				<v:cp v:nameU="ShapeType" v:lbl="ShapeType" v:prompt="" v:type="0" v:format="" v:sortKey="" v:invis="true"
						v:ask="false" v:langID="1031" v:cal="0" v:val="VT4(Konzeptionell)"/>
				<v:cp v:nameU="SubShapeType" v:lbl="SubShapeType" v:prompt="" v:type="0" v:format="" v:sortKey="" v:invis="true"
						v:ask="false" v:langID="1031" v:cal="0" v:val="VT4(Schlüssel)"/>
			</v:custProps>
			<v:userDefs>
				<v:ud v:nameU="visVersion" v:prompt="" v:val="VT0(15):26"/>
				<v:ud v:nameU="ShapeClass" v:prompt="" v:val="VT0(5):26"/>
				<v:ud v:nameU="SolSH" v:prompt="" v:val="VT15({BF0433D9-CD73-4EB5-8390-8653BE590246}):41"/>
				<v:ud v:nameU="visLegendShape" v:prompt="" v:val="VT0(2):26"/>
			</v:userDefs>
			<title>Schlüssel.18</title>
			<g id="shape19-45" v:mID="19" v:groupContext="shape" transform="translate(6.26241,0)">
				<title>Tabelle.19</title>
				<path d="M9.15 578.18 C9.15 575.65 7.1 573.6 4.57 573.6 C2.05 573.6 0 575.65 0 578.18 C0 580.17 1.27 581.86 3.05
							 582.48 L3.05 594.1 L4.59 595.28 L6.1 594.1 L6.1 592.88 L6.51 592.88 L6.51 590.9 L6.07 590.56 L6.07 589.76
							 L6.51 589.66 L6.51 588.46 L6.02 587.92 L6.51 587.57 L6.51 586.56 L6.07 586.41 L6.04 585.19 L6.51 585.07
							 L6.51 583.77 L6.1 583.52 L6.1 582.48 C7.87 581.86 9.15 580.17 9.15 578.18 ZM5.15 575.07 a0.488029 0.488029
							 -180 1 0 -0.976059 0 a0.488029 0.488029 -180 1 0 0.976059 0 Z" class="st9"/>
				<path d="M9.15 578.18 C9.15 575.65 7.1 573.6 4.57 573.6 C2.05 573.6 0 575.65 0 578.18 C0 580.17 1.27 581.86 3.05
							 582.48 L3.05 594.1 L4.59 595.28 L6.1 594.1 L6.1 592.88 L6.51 592.88 L6.51 590.9 L6.07 590.56 L6.07 589.76
							 L6.51 589.66 L6.51 588.46 L6.02 587.92 L6.51 587.57 L6.51 586.56 L6.07 586.41 L6.04 585.19 L6.51 585.07
							 L6.51 583.77 L6.1 583.52 L6.1 582.48 C7.87 581.86 9.15 580.17 9.15 578.18" class="st3"/>
				<path d="M3.99 582.64 L3.99 593.67" class="st3"/>
				<path d="M5.15 575.07 a0.488029 0.488029 -180 1 0 -0.976059 0 a0.488029 0.488029 -180 1 0 0.976059 0" class="st3"/>
			</g>
		</g>
		<g id="shape20-50" v:mID="20" v:groupContext="shape" transform="translate(152.143,-437.538)">
			<title>Benutzer</title>
			<v:userDefs>
				<v:ud v:nameU="msvShapeCategories" v:prompt="" v:val="VT4(Icon)"/>
				<v:ud v:nameU="visVersion" v:prompt="" v:val="VT0(15):26"/>
			</v:userDefs>
			<path d="M19.06 580.66 A2.78332 2.82785 -180 0 0 21.84 577.84 A2.78332 2.82785 -180 0 0 19.06 575.01 A2.78436 2.82891
						 -180 0 0 16.28 577.84 A2.78489 2.82944 -180 0 0 19.06 580.66 ZM19.06 573.6 A4.17125 4.23799 0 0 1 23.23
						 577.84 A4.17125 4.23799 0 0 1 19.06 582.08 A4.17108 4.23781 0 0 1 14.89 577.84 A4.17108 4.23781 0 0 1 19.06
						 573.6 ZM6.97 593.65 A4.8609 4.93867 -180 0 0 12.53 590.82 A6.11509 6.21293 -180 0 0 9.86 585.34 A20456 20783.3
						 -180 0 0 6.97 591.11 A10391.8 10558.1 0 0 1 4.08 585.34 A6.11576 6.21362 -180 0 0 1.41 590.82 A4.86035 4.93811
						 -180 0 0 6.97 593.65 ZM9.72 583.6 A7.32891 7.44617 0 0 1 13.92 590.82 A5.55418 5.64305 0 0 1 6.97 595.06
						 A5.55373 5.64259 0 0 1 0.02 590.82 A7.33199 7.4493 0 0 1 4.22 583.6 A4.99248 5.07236 -180 0 0 4.98 584.02
						 L6.97 588 L8.96 584.02 A4.91617 4.99483 -180 0 0 9.72 583.6 ZM21.8 581.92 A7.32891 7.44617 0 0 1 26.01 589.14
						 A5.55418 5.64305 0 0 1 19.06 593.38 A11.0716 11.2487 0 0 1 14.41 592.52 A4.2206 4.28813 -180 0 0 14.72 591.09
						 A9.58332 9.73665 -180 0 0 19.06 591.97 A4.8609 4.93867 -180 0 0 24.62 589.14 A6.11363 6.21145 -180 0 0 21.95
						 583.66 A13082.3 13291.6 -180 0 0 19.06 589.43 A14560.3 14793.2 0 0 1 16.17 583.66 A5.54176 5.63042 -180
						 0 0 13.88 586.69 A7.8707 7.99663 -180 0 0 12.98 585.17 A6.54167 6.64634 0 0 1 16.31 581.92 A4.99248 5.07236
						 -180 0 0 17.07 582.34 L19.06 586.32 L21.05 582.34 A4.91617 4.99483 -180 0 0 21.8 581.92 ZM6.97 582.34 A2.7828
						 2.82732 -180 0 0 9.75 579.52 A2.78332 2.82785 -180 0 0 6.97 576.69 A2.78436 2.82891 -180 0 0 4.19 579.52
						 A2.78489 2.82944 -180 0 0 6.97 582.34 ZM6.97 575.28 A4.17125 4.23799 0 0 1 11.14 579.52 A4.17125 4.23799
						 0 0 1 6.97 583.76 A4.17108 4.23781 0 0 1 2.8 579.52 A4.17108 4.23781 0 0 1 6.97 575.28 Z" class="st10"/>
		</g>
		<g id="shape39-52" v:mID="39" v:groupContext="shape" transform="translate(152.143,-506.445)">
			<title>Benutzer.39</title>
			<v:userDefs>
				<v:ud v:nameU="msvShapeCategories" v:prompt="" v:val="VT4(Icon)"/>
				<v:ud v:nameU="visVersion" v:prompt="" v:val="VT0(15):26"/>
			</v:userDefs>
			<path d="M19.06 580.66 A2.78332 2.82785 -180 0 0 21.84 577.84 A2.78332 2.82785 -180 0 0 19.06 575.01 A2.78436 2.82891
						 -180 0 0 16.28 577.84 A2.78489 2.82944 -180 0 0 19.06 580.66 ZM19.06 573.6 A4.17125 4.23799 0 0 1 23.23
						 577.84 A4.17125 4.23799 0 0 1 19.06 582.08 A4.17108 4.23781 0 0 1 14.89 577.84 A4.17108 4.23781 0 0 1 19.06
						 573.6 ZM6.97 593.65 A4.8609 4.93867 -180 0 0 12.53 590.82 A6.11509 6.21293 -180 0 0 9.86 585.34 A20456 20783.3
						 -180 0 0 6.97 591.11 A10391.8 10558.1 0 0 1 4.08 585.34 A6.11576 6.21362 -180 0 0 1.41 590.82 A4.86035 4.93811
						 -180 0 0 6.97 593.65 ZM9.72 583.6 A7.32891 7.44617 0 0 1 13.92 590.82 A5.55418 5.64305 0 0 1 6.97 595.06
						 A5.55373 5.64259 0 0 1 0.02 590.82 A7.33199 7.4493 0 0 1 4.22 583.6 A4.99248 5.07236 -180 0 0 4.98 584.02
						 L6.97 588 L8.96 584.02 A4.91617 4.99483 -180 0 0 9.72 583.6 ZM21.8 581.92 A7.32891 7.44617 0 0 1 26.01 589.14
						 A5.55418 5.64305 0 0 1 19.06 593.38 A11.0716 11.2487 0 0 1 14.41 592.52 A4.2206 4.28813 -180 0 0 14.72 591.09
						 A9.58332 9.73665 -180 0 0 19.06 591.97 A4.8609 4.93867 -180 0 0 24.62 589.14 A6.11363 6.21145 -180 0 0 21.95
						 583.66 A13082.3 13291.6 -180 0 0 19.06 589.43 A14560.3 14793.2 0 0 1 16.17 583.66 A5.54176 5.63042 -180
						 0 0 13.88 586.69 A7.8707 7.99663 -180 0 0 12.98 585.17 A6.54167 6.64634 0 0 1 16.31 581.92 A4.99248 5.07236
						 -180 0 0 17.07 582.34 L19.06 586.32 L21.05 582.34 A4.91617 4.99483 -180 0 0 21.8 581.92 ZM6.97 582.34 A2.7828
						 2.82732 -180 0 0 9.75 579.52 A2.78332 2.82785 -180 0 0 6.97 576.69 A2.78436 2.82891 -180 0 0 4.19 579.52
						 A2.78489 2.82944 -180 0 0 6.97 582.34 ZM6.97 575.28 A4.17125 4.23799 0 0 1 11.14 579.52 A4.17125 4.23799
						 0 0 1 6.97 583.76 A4.17108 4.23781 0 0 1 2.8 579.52 A4.17108 4.23781 0 0 1 6.97 575.28 Z" class="st11"/>
		</g>
		<g id="group40-54" transform="translate(625.768,-361.083)" v:mID="40" v:groupContext="group">
			<v:custProps>
				<v:cp v:nameU="ShapeClass" v:lbl="ShapeClass" v:prompt="" v:type="0" v:format="" v:sortKey="" v:invis="true"
						v:ask="false" v:langID="1031" v:cal="0" v:val="VT4(Sicherheit)"/>
				<v:cp v:nameU="ShapeType" v:lbl="ShapeType" v:prompt="" v:type="0" v:format="" v:sortKey="" v:invis="true"
						v:ask="false" v:langID="1031" v:cal="0" v:val="VT4(Konzeptionell)"/>
				<v:cp v:nameU="SubShapeType" v:lbl="SubShapeType" v:prompt="" v:type="0" v:format="" v:sortKey="" v:invis="true"
						v:ask="false" v:langID="1031" v:cal="0" v:val="VT4(Schloss)"/>
			</v:custProps>
			<v:userDefs>
				<v:ud v:nameU="visVersion" v:prompt="" v:val="VT0(15):26"/>
				<v:ud v:nameU="ShapeClass" v:prompt="" v:val="VT0(5):26"/>
				<v:ud v:nameU="SolSH" v:prompt="" v:val="VT15({BF0433D9-CD73-4EB5-8390-8653BE590246}):41"/>
				<v:ud v:nameU="visLegendShape" v:prompt="" v:val="VT0(2):26"/>
			</v:userDefs>
			<title>Schloss.40</title>
			<desc>PW2</desc>
			<g id="shape41-55" v:mID="41" v:groupContext="shape" transform="translate(4.72021,0)">
				<title>Tabelle.41</title>
				<path d="M8.28 570.81 L8.28 565.88 C8.28 564.59 8.62 563.4 9.22 562.39 C9.83 561.36 10.7 560.52 11.72 559.99 C12.53
							 559.57 13.43 559.34 14.39 559.34 C15.35 559.34 16.24 559.57 17.05 559.98 C18.06 560.51 18.93 561.33
							 19.54 562.34 C20.15 563.36 20.51 564.57 20.51 565.88 L20.5 570.81 L8.28 570.81 ZM28.4 570.81 L22.8 570.81
							 L22.8 565.88 C22.8 564.15 22.32 562.53 21.5 561.16 C20.68 559.8 19.5 558.68 18.1 557.95 C16.98 557.38
							 15.72 557.05 14.39 557.05 C13.06 557.05 11.79 557.38 10.67 557.96 C9.25 558.7 8.07 559.83 7.25 561.22
							 C6.45 562.58 5.99 564.18 5.99 565.88 L5.99 570.81 L0.39 570.81 C0.17 570.81 0 570.99 0 571.2 L0 594.89
							 C0 595.1 0.17 595.28 0.39 595.28 L28.4 595.28 C28.61 595.28 28.79 595.1 28.79 594.89 L28.79 571.2 C28.79
							 570.99 28.61 570.81 28.4 570.81 Z" class="st12"/>
			</g>
			<g id="shape42-57" v:mID="42" v:groupContext="shape" transform="translate(11.3424,-12.2518)">
				<title>Tabelle.42</title>
				<path d="M0 590.85 L15.48 590.85" class="st3"/>
				<path d="M0 595.28 L15.48 595.28" class="st3"/>
			</g>
			<g id="shape40-61" v:mID="40" v:groupContext="groupContent">
				<v:textBlock v:margins="rect(4,4,4,4)" v:tabSpace="42.5197"/>
				<v:textRect cx="19.1137" cy="605.277" width="29.4" height="20.0036"/>
				<text x="9.55" y="608.28" class="st7" v:langID="2055"><v:paragraph v:horizAlign="1"/><v:tabList/>PW2</text>			</g>
		</g>
		<g id="group43-63" transform="translate(503.15,-361.083)" v:mID="43" v:groupContext="group">
			<v:custProps>
				<v:cp v:nameU="ShapeClass" v:lbl="ShapeClass" v:prompt="" v:type="0" v:format="" v:sortKey="" v:invis="true"
						v:ask="false" v:langID="1031" v:cal="0" v:val="VT4(Sicherheit)"/>
				<v:cp v:nameU="ShapeType" v:lbl="ShapeType" v:prompt="" v:type="0" v:format="" v:sortKey="" v:invis="true"
						v:ask="false" v:langID="1031" v:cal="0" v:val="VT4(Konzeptionell)"/>
				<v:cp v:nameU="SubShapeType" v:lbl="SubShapeType" v:prompt="" v:type="0" v:format="" v:sortKey="" v:invis="true"
						v:ask="false" v:langID="1031" v:cal="0" v:val="VT4(Schloss)"/>
			</v:custProps>
			<v:userDefs>
				<v:ud v:nameU="visVersion" v:prompt="" v:val="VT0(15):26"/>
				<v:ud v:nameU="ShapeClass" v:prompt="" v:val="VT0(5):26"/>
				<v:ud v:nameU="SolSH" v:prompt="" v:val="VT15({BF0433D9-CD73-4EB5-8390-8653BE590246}):41"/>
				<v:ud v:nameU="visLegendShape" v:prompt="" v:val="VT0(2):26"/>
			</v:userDefs>
			<title>Schloss.43</title>
			<g id="shape44-64" v:mID="44" v:groupContext="shape" transform="translate(4.72021,0)">
				<title>Tabelle.44</title>
				<path d="M8.28 570.81 L8.28 565.88 C8.28 564.59 8.62 563.4 9.22 562.39 C9.83 561.36 10.7 560.52 11.72 559.99 C12.53
							 559.57 13.43 559.34 14.39 559.34 C15.35 559.34 16.24 559.57 17.05 559.98 C18.06 560.51 18.93 561.33
							 19.54 562.34 C20.15 563.36 20.51 564.57 20.51 565.88 L20.5 570.81 L8.28 570.81 ZM28.4 570.81 L22.8 570.81
							 L22.8 565.88 C22.8 564.15 22.32 562.53 21.5 561.16 C20.68 559.8 19.5 558.68 18.1 557.95 C16.98 557.38
							 15.72 557.05 14.39 557.05 C13.06 557.05 11.79 557.38 10.67 557.96 C9.25 558.7 8.07 559.83 7.25 561.22
							 C6.45 562.58 5.99 564.18 5.99 565.88 L5.99 570.81 L0.39 570.81 C0.17 570.81 0 570.99 0 571.2 L0 594.89
							 C0 595.1 0.17 595.28 0.39 595.28 L28.4 595.28 C28.61 595.28 28.79 595.1 28.79 594.89 L28.79 571.2 C28.79
							 570.99 28.61 570.81 28.4 570.81 Z" class="st2"/>
			</g>
			<g id="shape45-66" v:mID="45" v:groupContext="shape" transform="translate(11.3424,-12.2518)">
				<title>Tabelle.45</title>
				<path d="M0 590.85 L15.48 590.85" class="st3"/>
				<path d="M0 595.28 L15.48 595.28" class="st3"/>
			</g>
		</g>
		<g id="group46-70" transform="translate(-62.175,234.192) rotate(-90)" v:mID="46" v:groupContext="group">
			<v:custProps>
				<v:cp v:nameU="ShapeClass" v:lbl="ShapeClass" v:prompt="" v:type="0" v:format="" v:sortKey="" v:invis="true"
						v:ask="false" v:langID="1031" v:cal="0" v:val="VT4(Sicherheit)"/>
				<v:cp v:nameU="ShapeType" v:lbl="ShapeType" v:prompt="" v:type="0" v:format="" v:sortKey="" v:invis="true"
						v:ask="false" v:langID="1031" v:cal="0" v:val="VT4(Konzeptionell)"/>
				<v:cp v:nameU="SubShapeType" v:lbl="SubShapeType" v:prompt="" v:type="0" v:format="" v:sortKey="" v:invis="true"
						v:ask="false" v:langID="1031" v:cal="0" v:val="VT4(Schlüssel)"/>
			</v:custProps>
			<v:userDefs>
				<v:ud v:nameU="visVersion" v:prompt="" v:val="VT0(15):26"/>
				<v:ud v:nameU="ShapeClass" v:prompt="" v:val="VT0(5):26"/>
				<v:ud v:nameU="SolSH" v:prompt="" v:val="VT15({BF0433D9-CD73-4EB5-8390-8653BE590246}):41"/>
				<v:ud v:nameU="visLegendShape" v:prompt="" v:val="VT0(2):26"/>
			</v:userDefs>
			<title>Schlüssel.46</title>
			<g id="shape47-71" v:mID="47" v:groupContext="shape" transform="translate(6.26241,0)">
				<title>Tabelle.47</title>
				<path d="M9.15 578.18 C9.15 575.65 7.1 573.6 4.57 573.6 C2.05 573.6 0 575.65 0 578.18 C0 580.17 1.27 581.86 3.05
							 582.48 L3.05 594.1 L4.59 595.28 L6.1 594.1 L6.1 592.88 L6.51 592.88 L6.51 590.9 L6.07 590.56 L6.07 589.76
							 L6.51 589.66 L6.51 588.46 L6.02 587.92 L6.51 587.57 L6.51 586.56 L6.07 586.41 L6.04 585.19 L6.51 585.07
							 L6.51 583.77 L6.1 583.52 L6.1 582.48 C7.87 581.86 9.15 580.17 9.15 578.18 ZM5.15 575.07 a0.488029 0.488029
							 -180 1 0 -0.976059 0 a0.488029 0.488029 -180 1 0 0.976059 0 Z" class="st13"/>
				<path d="M9.15 578.18 C9.15 575.65 7.1 573.6 4.57 573.6 C2.05 573.6 0 575.65 0 578.18 C0 580.17 1.27 581.86 3.05
							 582.48 L3.05 594.1 L4.59 595.28 L6.1 594.1 L6.1 592.88 L6.51 592.88 L6.51 590.9 L6.07 590.56 L6.07 589.76
							 L6.51 589.66 L6.51 588.46 L6.02 587.92 L6.51 587.57 L6.51 586.56 L6.07 586.41 L6.04 585.19 L6.51 585.07
							 L6.51 583.77 L6.1 583.52 L6.1 582.48 C7.87 581.86 9.15 580.17 9.15 578.18" class="st3"/>
				<path d="M3.99 582.64 L3.99 593.67" class="st3"/>
				<path d="M5.15 575.07 a0.488029 0.488029 -180 1 0 -0.976059 0 a0.488029 0.488029 -180 1 0 0.976059 0" class="st3"/>
			</g>
		</g>
		<g id="shape50-76" v:mID="50" v:groupContext="shape" transform="translate(405.354,-18)">
			<title>Feld.50</title>
			<v:userDefs>
				<v:ud v:nameU="visVersion" v:val="VT0(15):26"/>
			</v:userDefs>
			<rect x="0" y="36" width="418.535" height="559.276" class="st1"/>
		</g>
	</g>
</svg>
